<svg width="1461" height="651" viewBox="0 0 1461 651" fill="none" xmlns="http://www.w3.org/2000/svg">
<g clip-path="url(#clip0)">
<rect width="1461" height="651" fill="white"/>
<path fill-rule="evenodd" clip-rule="evenodd" d="M119.855 -329.965C220.713 -331.316 319.518 -293.697 383.652 -216.889C449.014 -138.611 474.551 -33.4805 449.562 64.8963C425.178 160.893 347.961 229.936 258.688 275.069C165.945 321.957 59.353 351.36 -36.2849 310.523C-135.998 267.946 -205.35 173.746 -225.355 68.387C-244.482 -32.3422 -202.612 -132.046 -135.109 -209.94C-70.7288 -284.232 20.7904 -328.638 119.855 -329.965Z" fill="white" stroke="#D9D9D9"/>
<path fill-rule="evenodd" clip-rule="evenodd" d="M119.637 -320.966C216.397 -322.268 311.186 -286.012 372.714 -211.986C435.42 -136.542 459.919 -35.22 435.946 59.5938C412.552 152.113 338.474 218.656 252.828 262.154C163.854 307.344 61.5941 335.682 -30.1572 296.324C-125.818 255.29 -192.352 164.501 -211.544 62.958C-229.893 -34.1229 -189.725 -130.216 -124.966 -205.288C-63.2014 -276.889 24.5986 -319.687 119.637 -320.966Z" fill="#F6ECFF"/>
<path fill-rule="evenodd" clip-rule="evenodd" d="M115.844 432.252C176.79 434.517 234.869 459.029 273.135 506.682C311.646 554.637 326.831 617.702 312.943 677.692C299.12 737.4 257.238 785.894 202.293 812.683C147.096 839.596 82.6956 843.551 27.3547 816.936C-28.1088 790.262 -63.7433 736.954 -79.3166 677.248C-95.619 614.747 -96.9683 544.886 -56.7682 494.421C-16.6105 444.009 51.5723 429.863 115.844 432.252Z" fill="white" stroke="#D9D9D9"/>
<path fill-rule="evenodd" clip-rule="evenodd" d="M115.709 448.232C172.173 450.323 225.981 472.95 261.434 516.937C297.113 561.203 311.182 619.417 298.315 674.793C285.508 729.908 246.705 774.672 195.801 799.4C144.662 824.242 84.9974 827.893 33.7256 803.325C-17.6596 778.703 -50.6739 729.496 -65.1021 674.383C-80.2058 616.69 -81.4559 552.203 -44.2117 505.619C-7.00675 459.085 56.1626 446.028 115.709 448.232Z" fill="#FF9624"/>
<path fill-rule="evenodd" clip-rule="evenodd" d="M1388.89 -268.969C1462.24 -268.04 1533.09 -241.967 1581.27 -186.265C1632.23 -127.35 1662.54 -49.0182 1644.99 27.089C1627.5 102.897 1565.95 159.359 1494.63 189.325C1428.04 217.301 1354.28 208.072 1289.28 176.535C1224.29 145.005 1170.28 92.9233 1151.42 22.8088C1131.61 -50.8434 1142.33 -132.197 1190.36 -191.214C1237.71 -249.399 1314.19 -269.915 1388.89 -268.969Z" fill="white" stroke="#D9D9D9"/>
<path fill-rule="evenodd" clip-rule="evenodd" d="M1389.31 -253.971C1458.33 -253.101 1524.99 -228.674 1570.33 -176.491C1618.28 -121.296 1646.8 -47.9118 1630.28 23.3886C1613.83 94.4087 1555.92 147.304 1488.8 175.378C1426.14 201.588 1356.74 192.942 1295.58 163.396C1234.43 133.858 1183.61 85.065 1165.87 19.3788C1147.22 -49.6217 1157.31 -125.837 1202.5 -181.126C1247.06 -235.637 1319.03 -254.857 1389.31 -253.971Z" fill="#7E27C4"/>
<g filter="url(#filter0_d)">
<path fill-rule="evenodd" clip-rule="evenodd" d="M1614.22 607.716L1589.95 607.436L1564.12 587.048L1589.75 587.344H1589.78C1591.27 587.344 1592.48 586.162 1592.5 584.688C1592.51 583.204 1591.31 581.987 1589.81 581.97L1557.21 581.594L1527.47 558.13L1549.08 558.379H1549.11C1550.59 558.379 1551.81 557.196 1551.82 555.724C1551.84 554.24 1550.64 553.023 1549.14 553.005L1520.56 552.676L1499.6 536.137L1521.42 536.388H1521.45C1522.94 536.388 1524.15 535.205 1524.17 533.732C1524.18 532.249 1522.98 531.031 1521.48 531.014L1492.69 530.683L1475.83 517.371L1497.01 517.615H1497.04C1498.53 517.615 1499.74 516.432 1499.76 514.959C1499.78 513.476 1498.58 512.258 1497.08 512.241L1468.91 511.917L1449.97 496.965L1473.15 497.233H1473.18C1474.67 497.233 1475.88 496.05 1475.9 494.577C1475.92 493.093 1474.71 491.876 1473.21 491.859L1443.06 491.512L1425.69 477.807L1452 478.11H1452.03C1453.52 478.11 1454.73 476.928 1454.75 475.455C1454.77 473.971 1453.56 472.754 1452.06 472.737L1406.75 472.215H1406.72C1406.22 472.215 1405.75 472.351 1405.35 472.585H967.554C967.151 472.351 966.684 472.215 966.185 472.215H966.153L920.838 472.737C919.338 472.754 918.137 473.971 918.154 475.455C918.171 476.928 919.384 478.11 920.87 478.11H920.902L933.42 477.966L918.878 491.638L899.688 491.859C898.188 491.876 896.986 493.093 897.003 494.577C897.021 496.051 898.234 497.233 899.719 497.233H899.752L913.091 497.079L897.227 511.995L875.826 512.241C874.326 512.258 873.124 513.476 873.141 514.959C873.158 516.433 874.372 517.615 875.857 517.615H875.89L891.44 517.436L877.315 530.716L851.422 531.014C849.921 531.031 848.719 532.249 848.737 533.732C848.754 535.206 849.967 536.388 851.453 536.388H851.485L871.528 536.157L853.977 552.658L823.764 553.005C822.263 553.023 821.062 554.24 821.079 555.724C821.096 557.197 822.309 558.379 823.795 558.379H823.827L848.19 558.099L823.293 581.507L783.089 581.97C781.589 581.987 780.387 583.204 780.405 584.688C780.422 586.162 781.635 587.344 783.121 587.344H783.153L817.506 586.948L795.873 607.287L758.685 607.716C757.185 607.733 755.983 608.95 756 610.434C756.018 611.907 757.23 613.089 758.716 613.089H758.749L790.086 612.728L789.915 612.889H1596.77L1614.15 613.089H1614.19C1615.67 613.089 1616.88 611.907 1616.9 610.434C1616.92 608.95 1615.72 607.733 1614.22 607.716Z" fill="white"/>
<path fill-rule="evenodd" clip-rule="evenodd" d="M1142.65 444.289L935.205 442.517L951.526 331.348C952.425 325.228 957.731 320.68 964.002 320.655L1125.72 320.014C1129.23 320 1132.8 321.691 1136.12 324.169C1138.33 325.82 1139.99 327.641 1141.11 329.632L1142.65 444.289Z" fill="#D9D9D9"/>
<path fill-rule="evenodd" clip-rule="evenodd" d="M1154.68 319.001C1150.28 319.001 1146.19 321.278 1143.92 325.002L1141.11 329.587L1142.65 444.289L1343.42 442.517L1328.77 329.912C1327.96 323.673 1322.59 319.001 1316.22 319.001H1154.68Z" fill="#D9D9D9"/>
<path fill-rule="evenodd" clip-rule="evenodd" d="M945.546 371.13L874.525 397.496C869.619 399.317 866.33 403.916 866.225 409.103L864.345 502.074C864.266 506.061 867.51 509.337 871.539 509.337H1405.55C1409.73 509.337 1413.03 505.828 1412.73 501.704L1405.57 403.492C1405.26 399.172 1402.73 395.31 1398.88 393.254L1331.87 357.473L1342.68 442.676H935.228L945.546 371.13Z" fill="#D9D9D9"/>
<path fill-rule="evenodd" clip-rule="evenodd" d="M916.207 508.832L903.629 549.436C903.09 551.177 901.462 552.366 899.618 552.366C896.025 552.366 893.236 549.269 893.656 545.744L898.053 508.832H916.207ZM1376.47 508.832L1380.87 545.744C1381.29 549.269 1378.5 552.366 1374.9 552.366C1373.06 552.366 1371.43 551.177 1370.89 549.436L1358.32 508.832H1376.47Z" fill="#CDB1AA"/>
<path fill-rule="evenodd" clip-rule="evenodd" d="M1001.7 370.635C1004.11 370.635 1006.07 372.787 1006.07 375.444C1006.07 378.1 1004.11 380.253 1001.7 380.253C999.292 380.253 997.337 378.1 997.337 375.444C997.337 372.787 999.292 370.635 1001.7 370.635ZM1072.05 370.635C1074.46 370.635 1076.41 372.787 1076.41 375.444C1076.41 378.1 1074.46 380.253 1072.05 380.253C1069.64 380.253 1067.68 378.1 1067.68 375.444C1067.68 372.787 1069.64 370.635 1072.05 370.635ZM1199.39 370.635C1201.8 370.635 1203.76 372.787 1203.76 375.444C1203.76 378.1 1201.8 380.253 1199.39 380.253C1196.98 380.253 1195.03 378.1 1195.03 375.444C1195.03 372.787 1196.98 370.635 1199.39 370.635ZM1269.23 370.635C1271.64 370.635 1273.59 372.787 1273.59 375.444C1273.59 378.1 1271.64 380.253 1269.23 380.253C1266.82 380.253 1264.86 378.1 1264.86 375.444C1264.86 372.787 1266.82 370.635 1269.23 370.635Z" fill="#15994E"/>
<path fill-rule="evenodd" clip-rule="evenodd" d="M995.194 454.71L914.107 470.244C904.809 471.316 896.389 464.766 895.3 455.614L886.541 382.017C885.452 372.864 892.105 364.576 901.403 363.503L982.491 347.97C991.788 346.898 1000.21 353.448 1001.3 362.6L1010.06 436.198C1011.15 445.35 1004.49 453.638 995.194 454.71Z" fill="white"/>
<path fill-rule="evenodd" clip-rule="evenodd" d="M892.586 433.912L955.231 463.167L941.679 465.803L893.697 443.396L892.586 433.912ZM1007.3 413.157L1008.63 424.458L982.362 457.37L970.122 459.729L1007.3 413.157ZM1003.69 383.29L1005.04 394.552L960.726 449.604L890.622 417.448L889.505 408.086L958.326 439.654L1003.69 383.29ZM998.675 355.448C999.964 357.473 1000.83 359.802 1001.13 362.33L1001.44 364.952L954.071 423.787L887.542 393.281L886.424 383.911L951.668 413.829L998.675 355.448ZM982.305 347.969C983.931 347.781 985.529 347.831 987.067 348.084L948.807 395.946L890.532 369.03C892.713 366.626 895.6 364.836 898.921 363.995L946.408 385.928L975.742 349.231L982.305 347.969ZM956.771 352.917L942.257 371.141L918.773 360.255L932.25 357.652L939.883 361.191L944.601 355.267L956.771 352.917Z" fill="#A6A6A6"/>
<path fill-rule="evenodd" clip-rule="evenodd" d="M1141.37 328.872C1141.79 328.872 1142.14 329.212 1142.14 329.631L1142.14 442.419L1283.66 441.758C1284.08 441.756 1284.43 442.094 1284.43 442.513C1284.43 442.933 1284.09 443.274 1283.67 443.276L1010.18 444.555C1009.75 444.557 1009.4 444.218 1009.4 443.799C1009.4 443.38 1009.74 443.038 1010.17 443.036L1140.6 442.426L1140.6 329.631C1140.6 329.212 1140.94 328.872 1141.37 328.872Z" fill="#ABAFB1"/>
<path fill-rule="evenodd" clip-rule="evenodd" d="M1327.97 424.296C1323.42 424.296 1319.74 420.591 1319.74 416.018C1319.74 411.447 1323.42 407.742 1327.97 407.742C1332.51 407.742 1336.2 411.447 1336.2 416.018C1336.2 420.591 1332.51 424.296 1327.97 424.296ZM1311.05 455.05C1307.31 456.307 1303.09 453.891 1301.63 449.654C1300.16 445.416 1302 440.962 1305.74 439.704C1309.48 438.447 1313.7 440.863 1315.16 445.101C1316.63 449.338 1314.79 453.793 1311.05 455.05ZM1357.93 447.343C1360.37 447.343 1362.58 448.225 1364.23 449.664C1364.99 447.645 1365.41 445.457 1365.41 443.162V400.715C1365.41 396.071 1363.68 391.795 1360.79 388.511C1360.03 394.234 1355.14 398.653 1349.2 398.653C1342.75 398.653 1337.52 393.421 1337.52 386.967C1337.52 384.853 1338.08 382.872 1339.06 381.16L1312.8 378.303C1312.81 378.432 1312.82 378.559 1312.82 378.69C1312.82 382.903 1309.87 386.318 1306.24 386.318C1302.6 386.318 1299.65 382.903 1299.65 378.69C1299.65 378.07 1299.72 377.47 1299.84 376.893L1294.56 376.319C1283.37 375.101 1273.59 383.738 1273.59 394.835V399.59C1274.41 399.402 1275.25 399.302 1276.11 399.302C1283.29 399.302 1289.11 406.132 1289.11 414.558C1289.11 422.984 1283.29 429.814 1276.11 429.814C1275.25 429.814 1274.41 429.714 1273.59 429.526V437.282C1273.59 446.781 1280.84 454.758 1290.41 455.799L1344.44 461.679C1346.62 461.915 1348.73 461.776 1350.74 461.324C1349.47 459.85 1348.71 457.981 1348.71 455.945C1348.71 451.194 1352.84 447.343 1357.93 447.343Z" fill="#F3705A"/>
<path fill-rule="evenodd" clip-rule="evenodd" d="M1357.93 447.343C1360.37 447.343 1362.58 448.225 1364.23 449.665C1362.02 455.513 1356.92 459.928 1350.74 461.324C1349.47 459.851 1348.71 457.981 1348.71 455.945C1348.71 451.194 1352.84 447.343 1357.93 447.343ZM1305.74 439.704C1309.48 438.447 1313.7 440.863 1315.16 445.101C1316.63 449.338 1314.79 453.793 1311.05 455.05C1307.31 456.307 1303.09 453.891 1301.63 449.653C1300.16 445.416 1302 440.961 1305.74 439.704ZM1276.11 399.301C1283.29 399.301 1289.11 406.132 1289.11 414.558C1289.11 422.984 1283.29 429.815 1276.11 429.815C1275.25 429.815 1274.4 429.713 1273.59 429.526V399.591C1274.4 399.403 1275.25 399.301 1276.11 399.301ZM1327.97 407.742C1332.51 407.742 1336.2 411.447 1336.2 416.019C1336.2 420.59 1332.51 424.296 1327.97 424.296C1323.42 424.296 1319.74 420.59 1319.74 416.019C1319.74 411.447 1323.42 407.742 1327.97 407.742ZM1339.06 381.16L1348.59 382.197C1353.48 382.73 1357.77 385.077 1360.79 388.511C1360.03 394.234 1355.14 398.653 1349.2 398.653C1342.75 398.653 1337.52 393.421 1337.52 386.967C1337.52 384.853 1338.08 382.871 1339.06 381.16ZM1299.84 376.893L1312.8 378.303C1312.81 378.432 1312.82 378.559 1312.82 378.69C1312.82 382.903 1309.87 386.318 1306.24 386.318C1302.6 386.318 1299.65 382.903 1299.65 378.69C1299.65 378.07 1299.72 377.47 1299.84 376.893Z" fill="#E74B33"/>
<path d="M837.101 552.947H834.978V565.92H837.101V552.947Z" fill="#FF9624"/>
<path fill-rule="evenodd" clip-rule="evenodd" d="M1419.66 357.328C1419.82 357.374 1435.39 362.164 1451.14 379.345C1460.36 389.415 1467.86 401.718 1473.42 415.914C1480.35 433.629 1484.27 454.359 1485.07 477.527C1485.08 477.922 1484.77 478.255 1484.36 478.268H1484.34C1483.95 478.268 1483.62 477.962 1483.61 477.575C1482.82 454.568 1478.94 433.996 1472.06 416.43C1466.57 402.4 1459.16 390.246 1450.05 380.307C1434.58 363.419 1419.39 358.746 1419.24 358.701C1418.85 358.586 1418.64 358.186 1418.75 357.807C1418.87 357.427 1419.28 357.211 1419.66 357.328ZM1525.94 364.008C1526.33 364.092 1526.58 364.474 1526.49 364.861C1520.26 393.149 1488.8 476.65 1488.49 477.49C1488.38 477.779 1488.1 477.958 1487.8 477.958C1487.72 477.958 1487.63 477.944 1487.55 477.913C1487.17 477.775 1486.98 477.361 1487.12 476.99C1487.44 476.151 1518.86 392.745 1525.07 364.556C1525.16 364.169 1525.54 363.921 1525.94 364.008ZM1424.23 417.629C1424.31 417.68 1433.16 422.834 1443.15 432.643C1452.38 441.699 1464.51 456.703 1469.92 476.746C1470.03 477.128 1469.79 477.521 1469.41 477.623C1469.34 477.64 1469.28 477.648 1469.22 477.648C1468.9 477.648 1468.6 477.436 1468.52 477.114C1458.32 439.336 1423.84 419.068 1423.49 418.867C1423.14 418.667 1423.03 418.227 1423.23 417.886C1423.43 417.543 1423.88 417.429 1424.23 417.629Z" fill="#1ED346"/>
<path fill-rule="evenodd" clip-rule="evenodd" d="M1473.89 461.292C1475.46 461.618 1476.33 462.184 1476.7 462.899C1476.92 462.683 1477.17 462.465 1477.45 462.246C1481.77 458.796 1484.86 464.455 1486.64 469.527C1489.69 466.772 1494.38 463.66 1495 469.927C1495.04 470.323 1495.04 470.684 1495.02 471.013C1498.87 469.164 1503.41 468.299 1505.68 472.646C1510.81 482.484 1488.43 475.316 1488.43 475.316C1488.43 475.316 1489.07 474.758 1490.13 473.987C1489.37 473.9 1488.59 473.736 1487.85 473.541C1488.23 475.02 1488.43 476.019 1488.43 476.019C1488.43 476.019 1484.68 474.923 1481.12 473.067C1477.81 473.878 1472.78 474.411 1472.11 470.396C1470.08 472.169 1468.16 473.481 1468.16 473.481L1468.16 473.464C1468.11 472.939 1466.87 459.829 1473.89 461.292ZM1453.63 471.369C1456.28 463.408 1468.03 474.507 1468.03 474.507C1468.03 474.507 1450.37 481.172 1453.63 471.369ZM1447.34 463.345C1446.43 453.978 1463.09 461.035 1463.09 461.035C1463.09 461.035 1448.25 472.71 1447.34 463.345ZM1492.85 463.651C1492.85 463.651 1510.24 446.224 1513.24 459.154C1515.58 469.293 1492.85 463.651 1492.85 463.651ZM1486.8 446.401C1489.77 443.249 1493.19 441.344 1494.02 447.965C1494.29 450.11 1492.89 451.33 1490.97 452.01C1492.61 457.027 1492.85 463.651 1492.85 463.651C1492.85 463.651 1480.32 458.239 1480.09 452.401C1478 453.031 1474.43 453.919 1471.63 453.648C1469.46 457.587 1463.09 461.035 1463.09 461.035C1463.09 461.035 1463.31 445.884 1468.38 446.718C1470.78 443.959 1477.44 448.454 1480.4 450.684C1480.86 449.558 1481.86 448.434 1483.58 447.348C1484.75 446.606 1485.78 446.379 1486.67 446.538L1486.8 446.401ZM1453.33 445.511C1453.33 445.511 1456.19 460.778 1447.99 456.416C1439.79 452.054 1453.33 445.511 1453.33 445.511ZM1443.56 434.22C1443.56 434.22 1448.51 450.514 1439.79 448.59C1431.07 446.665 1443.56 434.22 1443.56 434.22ZM1518.65 441.867C1523.49 454.102 1499.41 446.084 1499.41 446.084C1499.41 446.084 1515.38 433.575 1518.65 441.867ZM1492.28 428.938C1499.96 424.635 1498.98 446.084 1498.98 446.084C1498.98 446.084 1480.73 435.402 1492.28 428.938ZM1460.09 433.578C1467.64 434.348 1453.33 445.511 1453.33 445.511C1453.33 445.511 1447.55 432.299 1460.09 433.578ZM1432.76 424.469C1432.76 424.469 1440.31 444.356 1430.55 440.635C1420.78 436.914 1432.76 424.469 1432.76 424.469ZM1478.8 435.324C1478.8 435.324 1463.59 443.574 1463.59 434.468C1463.59 425.361 1478.8 435.324 1478.8 435.324ZM1487.5 420.648C1498.26 424.076 1478.59 434.896 1478.59 434.896C1478.59 434.896 1476.74 417.22 1487.5 420.648ZM1450.72 419.85C1459.31 422.544 1443.56 434.22 1443.56 434.22C1443.56 434.22 1442.13 417.155 1450.72 419.85ZM1424.08 418.433C1423.21 415.905 1416.73 395.963 1428.07 397.525C1439.2 399.059 1426.56 415.669 1424.46 418.335C1424.52 418.319 1424.56 418.31 1424.56 418.31C1424.56 418.31 1422.35 438.71 1412.45 429.985C1405.35 423.726 1420.84 419.277 1424.01 418.449L1424.08 418.433ZM1506.25 426.408C1506.25 426.408 1523.07 411.51 1524.64 425.002C1525.69 433.966 1506.25 426.408 1506.25 426.408ZM1495.84 413.197C1502.68 408.353 1506.25 426.408 1506.25 426.408C1506.25 426.408 1485.72 420.364 1495.84 413.197ZM1439.01 409.329C1450.46 411.51 1432.76 424.469 1432.76 424.469C1432.76 424.469 1430.32 407.674 1439.01 409.329ZM1473.48 417.97C1473.48 417.97 1463.15 429.218 1460.65 419.684C1458.87 412.888 1473.48 417.97 1473.48 417.97ZM1482.5 402.329C1491.52 405.114 1473.48 417.97 1473.48 417.97C1473.48 417.97 1473.48 399.544 1482.5 402.329ZM1467.5 404.364L1467.49 404.38C1467.23 404.9 1460.52 417.833 1453.81 411.114C1446.96 404.258 1467.5 404.364 1467.5 404.364ZM1530.2 403.218C1535.34 414.04 1512.52 408.278 1512.52 408.278C1512.52 408.278 1525.07 392.396 1530.2 403.218ZM1498.12 395.348C1504.33 388.222 1512.52 408.278 1512.52 408.278C1512.52 408.278 1489.42 405.326 1498.12 395.348ZM1474.78 386.581C1483.91 388.188 1466.96 403.293 1466.96 403.293C1466.96 403.293 1464.02 384.686 1474.78 386.581ZM1458.15 389.152C1458.15 389.152 1457.28 406.614 1448.05 400.08C1440.46 394.713 1458.15 389.152 1458.15 389.152ZM1538.62 386.775C1540.76 401.391 1518.98 389.125 1518.98 389.125C1518.98 389.125 1536.14 369.825 1538.62 386.775ZM1449.46 378.547C1449.46 378.547 1447.36 397.726 1439.35 391.616C1430.22 384.653 1449.46 378.547 1449.46 378.547ZM1463.7 371.584C1473.8 373.083 1458.15 389.152 1458.15 389.152C1458.15 389.152 1453.37 370.052 1463.7 371.584ZM1504.97 373.845C1514.84 367.827 1519.11 388.53 1519.11 388.53C1519.11 388.53 1491.14 382.277 1504.97 373.845ZM1434.35 365.691C1434.35 365.691 1435 388.509 1424.9 382.939C1414.79 377.368 1434.35 365.691 1434.35 365.691ZM1449.24 378.011C1449.24 378.011 1438.4 358.462 1448.26 358.299C1461.31 358.085 1449.24 378.011 1449.24 378.011ZM1420.11 358.3C1420.11 358.3 1419.46 383.26 1408.81 374.047C1401.17 367.439 1420.11 358.3 1420.11 358.3ZM1508.39 348.689C1522.79 339.132 1525.36 366.396 1525.36 366.396C1525.36 366.396 1498.39 355.323 1508.39 348.689ZM1549.45 357.542C1556.44 370.051 1525.78 364.71 1525.78 364.71C1525.78 364.71 1542.47 345.034 1549.45 357.542ZM1434.35 365.691C1434.35 365.691 1422.89 344.789 1435.22 344.373C1447.94 343.944 1434.35 365.691 1434.35 365.691ZM1420.11 358.3L1420.06 358.25C1418.99 357.193 1401.39 339.498 1414.35 334.303C1427.72 328.946 1420.11 358.3 1420.11 358.3Z" fill="#1ED346"/>
<mask id="mask0" mask-type="alpha" maskUnits="userSpaceOnUse" x="1433" y="475" width="82" height="100">
<path fill-rule="evenodd" clip-rule="evenodd" d="M1433.31 475.903L1514.13 477.152L1504.94 552C1504.3 557.215 1502.17 562.182 1498.64 566.117C1494.05 571.236 1486.13 576.043 1472.83 574.795C1459.43 573.537 1450.66 567.909 1445.26 562.631C1440.57 558.058 1437.83 551.899 1437.44 545.411L1433.31 475.903Z" fill="white"/>
</mask>
<g mask="url(#mask0)">
<path fill-rule="evenodd" clip-rule="evenodd" d="M1433.31 475.903L1514.13 477.152L1504.94 552C1504.3 557.215 1502.17 562.182 1498.64 566.117C1494.05 571.236 1486.13 576.043 1472.83 574.795C1459.43 573.537 1450.66 567.909 1445.26 562.631C1440.57 558.058 1437.83 551.899 1437.44 545.411L1433.31 475.903Z" fill="#D31E9C"/>
<path fill-rule="evenodd" clip-rule="evenodd" d="M1444.43 560.434C1448.39 561.894 1452.6 563.092 1457.02 563.969C1458.03 564.169 1459.05 564.353 1460.09 564.519C1460.61 564.604 1461.14 564.684 1461.68 564.76C1463.71 565.049 1465.79 565.27 1467.91 565.418C1468.48 565.459 1469.05 565.493 1469.63 565.523C1470.18 565.55 1470.73 565.574 1471.28 565.591C1471.29 565.592 1471.3 565.592 1471.3 565.592L1471.87 565.609C1481.18 565.85 1490.86 564.659 1500.86 561.815C1500.91 561.801 1500.96 561.791 1501.01 561.784L1501.08 561.777C1501.08 561.777 1501.08 561.777 1501.09 561.777C1501.55 561.749 1502 562.044 1502.13 562.507C1502.21 562.767 1502.17 563.033 1502.06 563.256C1502.05 563.263 1502.05 563.27 1502.04 563.277L1502.01 563.338C1501.92 563.464 1501.81 563.573 1501.68 563.653C1501.6 563.699 1501.52 563.735 1501.43 563.761L1500.94 563.897L1500.81 563.936L1500.18 564.108C1491.25 566.535 1482.56 567.67 1474.16 567.664C1473.96 567.664 1473.76 567.663 1473.56 567.662C1472.83 567.657 1472.09 567.643 1471.36 567.62C1470.35 567.589 1469.34 567.541 1468.34 567.477L1467.76 567.438L1467.17 567.394L1467.12 567.391C1467.11 567.39 1467.09 567.389 1467.08 567.387C1466.03 567.306 1465 567.208 1463.97 567.093L1463.35 567.021C1462.73 566.947 1462.11 566.866 1461.5 566.78L1460.89 566.692C1454.77 565.79 1449.03 564.292 1443.71 562.331C1443.18 562.135 1442.91 561.552 1443.11 561.028L1443.14 560.955L1443.11 561.028C1443.14 560.928 1443.2 560.837 1443.26 560.758L1443.31 560.7C1443.38 560.619 1443.47 560.552 1443.57 560.499C1443.67 560.443 1443.78 560.404 1443.89 560.384L1443.97 560.374C1443.99 560.372 1444.02 560.37 1444.04 560.37C1444.17 560.367 1444.3 560.387 1444.43 560.434ZM1437.64 540.226L1437.69 540.251L1438.06 540.429C1440.33 541.509 1442.73 542.509 1445.25 543.41L1445.72 543.578C1446.76 543.942 1447.83 544.289 1448.91 544.618C1450.93 545.232 1453.03 545.781 1455.19 546.257C1455.36 546.294 1455.53 546.331 1455.7 546.367C1458.23 546.907 1460.85 547.346 1463.56 547.672C1464.43 547.777 1465.3 547.869 1466.18 547.948L1466.71 547.994C1467.94 548.099 1469.19 548.177 1470.44 548.23C1470.61 548.237 1470.78 548.244 1470.95 548.25L1471.49 548.269C1472.38 548.296 1473.27 548.31 1474.17 548.311L1474.71 548.309C1484.61 548.258 1494.93 546.583 1505.59 543.019C1505.7 542.985 1505.8 542.967 1505.9 542.965L1505.98 542.967C1506.21 542.979 1506.43 543.067 1506.6 543.213L1506.65 543.264C1506.76 543.37 1506.84 543.501 1506.9 543.653L1506.9 543.653C1507.08 544.182 1506.79 544.757 1506.25 544.937C1495.46 548.544 1485 550.256 1474.96 550.333L1474.42 550.335C1474.24 550.336 1474.06 550.335 1473.88 550.335L1473.34 550.331C1470.86 550.307 1468.4 550.183 1465.97 549.963C1465.78 549.945 1465.59 549.927 1465.4 549.909L1464.87 549.857C1464.35 549.803 1463.83 549.745 1463.31 549.682C1462.38 549.57 1461.45 549.445 1460.54 549.307C1459.93 549.214 1459.32 549.116 1458.72 549.011C1456.7 548.664 1454.74 548.254 1452.83 547.789C1452.32 547.665 1451.82 547.538 1451.32 547.406L1450.81 547.269C1448.8 546.728 1446.86 546.126 1444.99 545.469C1444.31 545.231 1443.64 544.986 1442.97 544.733L1442.51 544.555C1440.5 543.776 1438.57 542.936 1436.73 542.043C1436.22 541.797 1436.01 541.19 1436.27 540.688L1436.3 540.631L1436.3 540.618C1436.49 540.303 1436.83 540.122 1437.19 540.122C1437.34 540.122 1437.49 540.156 1437.64 540.226ZM1436.52 521.042C1443.87 524.779 1452.82 527.707 1463.15 528.997C1477.21 530.755 1492.22 529.224 1507.96 523.573C1508.49 523.382 1509.08 523.653 1509.28 524.178C1509.47 524.704 1509.2 525.285 1508.66 525.476C1492.61 531.239 1477.27 532.804 1462.89 531.006C1452.31 529.684 1443.13 526.682 1435.57 522.842C1435.07 522.586 1434.87 521.976 1435.13 521.479C1435.39 520.981 1436.01 520.786 1436.52 521.042ZM1434.59 496.9L1434.66 496.901C1434.82 496.908 1434.97 496.948 1435.11 497.025C1435.28 497.115 1435.44 497.205 1435.61 497.294C1436.66 497.848 1437.74 498.386 1438.86 498.905C1441.58 500.167 1444.51 501.322 1447.65 502.329C1450.55 503.258 1453.63 504.061 1456.87 504.705C1458.68 505.063 1460.53 505.372 1462.43 505.626C1463.9 505.821 1465.38 505.981 1466.86 506.104C1467.01 506.117 1467.16 506.129 1467.31 506.141L1467.8 506.177C1469.11 506.272 1470.43 506.339 1471.76 506.376L1472.26 506.388C1472.59 506.395 1472.92 506.401 1473.26 506.405L1473.76 506.409C1473.92 506.41 1474.09 506.411 1474.26 506.411L1474.76 506.409C1486.3 506.347 1498.39 504.075 1510.93 499.184C1511.05 499.134 1511.18 499.112 1511.31 499.112L1511.39 499.115C1511.6 499.132 1511.8 499.214 1511.97 499.349C1511.99 499.369 1512.02 499.391 1512.04 499.413C1512.07 499.446 1512.1 499.482 1512.13 499.52C1512.18 499.586 1512.22 499.659 1512.26 499.739C1512.26 499.743 1512.26 499.748 1512.26 499.752C1512.47 500.272 1512.21 500.861 1511.69 501.066C1498.05 506.386 1484.91 508.669 1472.41 508.417C1471.3 508.394 1470.19 508.352 1469.09 508.289L1468.59 508.26C1468.43 508.25 1468.28 508.24 1468.12 508.23C1467.1 508.161 1466.08 508.075 1465.06 507.973C1464.77 507.943 1464.47 507.911 1464.17 507.878C1463.99 507.858 1463.81 507.838 1463.63 507.817L1463.14 507.758C1462.81 507.718 1462.49 507.676 1462.16 507.633C1459.89 507.33 1457.69 506.951 1455.57 506.506C1454.14 506.208 1452.75 505.88 1451.39 505.525C1450.55 505.304 1449.71 505.072 1448.89 504.83C1448.71 504.778 1448.54 504.727 1448.37 504.674C1448.12 504.6 1447.87 504.524 1447.63 504.448C1447.08 504.276 1446.53 504.099 1445.99 503.918C1445.37 503.71 1444.76 503.496 1444.15 503.276C1440.79 502.059 1437.68 500.676 1434.84 499.184C1434.6 499.058 1434.37 498.932 1434.13 498.805C1434.13 498.803 1434.12 498.802 1434.12 498.8C1433.62 498.531 1433.44 497.916 1433.72 497.426C1433.9 497.099 1434.24 496.91 1434.59 496.9ZM1431.75 478.572C1439.66 482.9 1449.62 486.423 1461.34 488.008C1477.76 490.229 1495.35 488.252 1513.84 480.94C1514.42 480.714 1515.06 480.994 1515.29 481.564C1515.51 482.135 1515.23 482.78 1514.66 483.006C1495.81 490.46 1477.83 492.48 1461.04 490.21C1449.03 488.586 1438.81 484.972 1430.69 480.52C1430.15 480.225 1429.95 479.55 1430.24 479.012C1430.54 478.474 1431.22 478.277 1431.75 478.572Z" fill="#F4F0F0"/>
</g>
<path fill-rule="evenodd" clip-rule="evenodd" d="M1022.36 398.517H1063.76C1064.23 398.517 1064.61 398.891 1064.61 399.354V460.037C1064.61 460.499 1064.23 460.874 1063.76 460.874H1022.36C1004.89 460.874 990.723 446.915 990.723 429.695C990.723 412.476 1004.89 398.517 1022.36 398.517Z" fill="#010101"/>
<path fill-rule="evenodd" clip-rule="evenodd" d="M1184.38 548.958L1138.6 451.274C1138.6 441.579 1138.19 436.355 1131.28 430.429C1123.15 423.451 1089.23 407.205 1080.24 403.434C1071.2 399.643 1071.6 393.077 1071.6 393.077H1000.34C1000.34 393.077 959.267 461.012 1044.76 461.012L1081.67 461.431L1040.79 541.518L1083.91 566.312L1114.9 500.628L1133.1 558.636L1184.38 548.958Z" fill="#010101"/>
<path fill-rule="evenodd" clip-rule="evenodd" d="M1142.58 577.68L1137.06 557.725L1179.73 549.75L1181.93 555.565C1183.28 559.151 1186.72 561.584 1190.61 561.636C1196.47 561.716 1204.42 562.778 1205.11 567.876L1147.75 580.739C1145.48 581.249 1143.19 579.9 1142.58 577.68Z" fill="#D31E9C"/>
<path fill-rule="evenodd" clip-rule="evenodd" d="M1192.27 558.218C1194.1 558.179 1195.23 556.234 1194.34 554.66C1193.62 553.385 1191.92 553.04 1190.74 553.93L1184.88 558.376L1192.27 558.218ZM1183.33 558.49L1190.22 553.267C1191.81 552.065 1194.11 552.531 1195.08 554.251C1196.29 556.377 1194.76 559.002 1192.29 559.055L1183.6 559.241C1183.19 559.249 1183.01 558.737 1183.33 558.49ZM1187.47 551.217C1188.3 549.61 1187.09 547.71 1185.26 547.741C1183.78 547.767 1182.67 549.082 1182.91 550.536L1183.85 557.527L1187.47 551.217ZM1183.17 558.877L1182.07 550.659C1181.75 548.715 1183.25 546.939 1185.25 546.904C1187.72 546.862 1189.34 549.426 1188.22 551.613L1183.96 559.028C1183.76 559.378 1183.22 559.275 1183.17 558.877Z" fill="#B9B3B8"/>
<path fill-rule="evenodd" clip-rule="evenodd" d="M1043.03 542.677L1079.37 563.648L1077.19 569.471C1075.85 573.062 1076.84 577.117 1079.75 579.654C1084.14 583.484 1089.46 589.398 1086.61 593.705L1035.9 566.995C1033.84 565.918 1033 563.429 1034.01 561.351L1043.03 542.677Z" fill="#D31E9C"/>
<path fill-rule="evenodd" clip-rule="evenodd" d="M1084.59 571.548C1086.4 571.29 1087.28 569.224 1086.2 567.769C1085.33 566.59 1083.59 566.452 1082.54 567.472L1077.54 572.475L1084.59 571.548ZM1086.89 567.274C1088.35 569.239 1087.16 572.028 1084.71 572.377L1081.1 572.852L1085 573.064C1087 573.173 1088.43 575.003 1088.03 576.934C1087.54 579.319 1084.64 580.329 1082.74 578.781L1076.03 573.334C1075.74 573.097 1075.88 572.648 1076.23 572.597L1081.94 566.881C1083.37 565.497 1085.71 565.684 1086.89 567.274ZM1077.57 573.499L1083.28 578.135C1084.69 579.282 1086.83 578.534 1087.2 576.766C1087.49 575.336 1086.43 573.98 1084.95 573.9L1077.57 573.499Z" fill="#B9B3B8"/>
<path fill-rule="evenodd" clip-rule="evenodd" d="M1054.02 392.658C1054.14 392.658 1054.27 392.716 1054.35 392.816C1054.41 392.892 1054.51 393.031 1054.64 393.224C1054.86 393.542 1055.08 393.902 1055.28 394.295C1056.16 396.014 1056.49 397.794 1055.94 399.48C1055.91 399.586 1055.87 399.69 1055.83 399.794C1061.5 399.665 1067.53 399.441 1073.91 399.113C1074.15 399.101 1074.35 399.278 1074.36 399.509C1074.37 399.74 1074.19 399.936 1073.96 399.948C1072.12 400.043 1070.32 400.128 1068.55 400.206C1068.58 400.254 1068.62 400.304 1068.66 400.355C1068.98 400.798 1069.35 401.24 1069.79 401.652C1071.06 402.869 1072.53 403.566 1074.18 403.501C1075.57 403.446 1076.79 403.316 1077.83 403.134C1078.32 403.048 1078.74 402.956 1079.09 402.865C1079.3 402.811 1079.43 402.77 1079.49 402.749C1079.71 402.672 1079.96 402.786 1080.04 403.004C1080.11 403.222 1080 403.461 1079.78 403.538C1079.69 403.567 1079.54 403.614 1079.31 403.674C1078.94 403.771 1078.5 403.868 1077.98 403.958C1076.9 404.147 1075.64 404.281 1074.21 404.338C1072.3 404.413 1070.63 403.616 1069.2 402.254C1068.72 401.804 1068.31 401.323 1067.96 400.841C1067.78 400.591 1067.65 400.386 1067.57 400.247C1063.31 400.427 1059.22 400.558 1055.3 400.642C1055.25 400.662 1055.2 400.672 1055.15 400.673C1055.12 400.674 1055.12 400.674 1054.97 400.677C1054.82 400.679 1054.65 400.682 1054.46 400.685C1053.9 400.693 1053.29 400.701 1052.63 400.709C1051.47 400.723 1050.31 400.733 1049.18 400.739C1048.92 400.742 1048.66 400.744 1048.4 400.746L1048.4 400.736C1048.06 405.683 1051.46 410.143 1056.39 411.238C1068.51 413.927 1081.69 417.135 1093.65 420.519C1111.07 425.448 1122.67 429.858 1126.31 433.494C1131.64 438.827 1135.16 443.272 1137.22 446.875C1137.95 448.147 1138.44 449.226 1138.74 450.116C1138.93 450.666 1139.01 451.038 1139.02 451.239C1139.04 451.469 1138.87 451.672 1138.64 451.691C1138.4 451.711 1138.2 451.54 1138.18 451.31C1138.18 451.285 1138.17 451.218 1138.14 451.107C1138.1 450.91 1138.03 450.668 1137.94 450.38C1137.65 449.542 1137.18 448.513 1136.48 447.286C1134.46 443.752 1130.99 439.365 1125.7 434.081C1122.22 430.596 1110.66 426.202 1093.42 421.324C1081.47 417.944 1068.31 414.74 1056.2 412.055C1050.89 410.875 1047.22 406.083 1047.55 400.752C1041.15 400.794 1035.25 400.704 1029.82 400.497C1029.81 400.805 1029.79 401.189 1029.74 401.625C1029.64 402.492 1029.45 403.351 1029.15 404.159C1028.46 405.998 1027.29 407.333 1025.53 407.911C1020.8 409.465 1016.03 409.033 1011.61 407.375C1010.74 407.051 1009.96 406.702 1009.28 406.353C1009.06 406.244 1008.87 406.141 1008.71 406.047C1007.93 409.718 1007.46 413.32 1007.41 416.707C1007.3 424.342 1009.34 429.993 1014.01 433.013C1018.24 435.748 1024.54 437.901 1033.07 439.696C1039.82 441.118 1047.08 442.193 1058.76 443.632C1059.65 443.742 1060.57 443.855 1061.73 443.997C1062.2 444.053 1064.18 444.294 1064.7 444.358C1077.99 445.978 1084.54 446.917 1090.99 448.286C1099.36 450.065 1104.94 452.218 1107.92 455.086C1111.58 458.616 1115.95 467.155 1120.94 479.903C1123.73 487.059 1126.67 495.418 1129.69 504.74C1133.34 515.953 1136.93 527.966 1140.31 539.978C1141.49 544.182 1142.56 548.086 1143.5 551.589C1143.83 552.816 1144.12 553.905 1144.37 554.843C1144.46 555.172 1144.53 555.458 1144.6 555.701C1144.63 555.847 1144.66 555.945 1144.67 555.996C1144.73 556.219 1144.59 556.447 1144.37 556.505C1144.14 556.562 1143.91 556.427 1143.85 556.203C1143.84 556.153 1143.81 556.055 1143.77 555.91C1143.71 555.668 1143.64 555.382 1143.55 555.054C1143.3 554.117 1143.01 553.029 1142.68 551.804C1141.74 548.303 1140.67 544.402 1139.49 540.201C1136.11 528.199 1132.52 516.197 1128.89 504.996C1125.86 495.688 1122.93 487.343 1120.14 480.203C1115.21 467.571 1110.86 459.1 1107.32 455.684C1104.5 452.958 1099.04 450.852 1090.81 449.105C1084.4 447.742 1077.86 446.805 1064.6 445.189C1064.07 445.125 1062.09 444.884 1061.63 444.827C1060.47 444.686 1059.54 444.573 1058.65 444.463C1046.95 443.02 1039.67 441.943 1032.89 440.515C1024.27 438.7 1017.88 436.517 1013.54 433.713C1008.59 430.505 1006.45 424.587 1006.57 416.694C1006.65 411.129 1007.83 405.019 1009.65 398.971C1009.29 398.926 1008.93 398.88 1008.57 398.834C1005.32 398.414 1002.64 397.964 1000.5 397.514C999.748 397.356 999.115 397.209 998.598 397.076C998.416 397.03 998.262 396.988 998.134 396.952C998.056 396.93 998.003 396.915 997.975 396.907C997.751 396.838 997.626 396.604 997.696 396.383C997.765 396.162 998.003 396.039 998.227 396.107C998.248 396.114 998.294 396.127 998.366 396.147C998.488 396.181 998.636 396.221 998.812 396.266C999.316 396.395 999.937 396.54 1000.68 396.695C1002.8 397.141 1005.45 397.587 1008.68 398.004C1009.09 398.057 1009.5 398.109 1009.92 398.16C1010.02 398.002 1010.21 397.924 1010.4 397.98C1010.54 398.022 1010.64 398.126 1010.68 398.251C1018.54 399.173 1028 399.753 1039.19 399.893L1039.19 393.077C1039.19 392.846 1039.38 392.658 1039.62 392.658H1054.02ZM1081.71 461.015L1098.3 462.718C1101.26 463.023 1103.76 465.023 1104.67 467.816L1115.31 500.5C1115.38 500.72 1115.26 500.956 1115.03 501.027C1114.81 501.097 1114.57 500.976 1114.5 500.756L1103.86 468.072C1103.05 465.595 1100.84 463.821 1098.21 463.551L1091.64 462.876L1049.84 546.337C1049.74 546.544 1049.48 546.629 1049.27 546.527C1049.06 546.424 1048.98 546.173 1049.08 545.966L1090.74 462.784L1081.63 461.847C1081.39 461.823 1081.22 461.617 1081.25 461.387C1081.27 461.158 1081.48 460.991 1081.71 461.015ZM1010.51 399.074L1010.41 399.412C1009.83 401.338 1009.32 403.269 1008.89 405.184C1008.93 405.207 1008.99 405.242 1009.07 405.289C1009.24 405.386 1009.44 405.494 1009.67 405.61C1010.32 405.945 1011.07 406.28 1011.91 406.593C1016.16 408.188 1020.74 408.602 1025.27 407.117C1026.75 406.63 1027.75 405.49 1028.35 403.87C1028.63 403.131 1028.8 402.335 1028.9 401.53C1028.93 401.234 1028.95 400.953 1028.96 400.693C1028.96 400.609 1028.97 400.532 1028.97 400.463C1022.04 400.182 1015.9 399.708 1010.51 399.074ZM1053.8 393.495H1040.04V399.764C1041.37 399.862 1043.79 399.907 1046.99 399.908C1047.71 399.908 1048.44 399.906 1049.19 399.902C1051.05 399.884 1052.95 399.855 1054.89 399.814L1054.88 399.841C1054.98 399.64 1055.07 399.434 1055.13 399.225C1055.6 397.784 1055.31 396.213 1054.52 394.672C1054.33 394.311 1054.14 393.981 1053.94 393.689C1053.89 393.614 1053.84 393.55 1053.8 393.495Z" fill="#B9B3B8"/>
<path fill-rule="evenodd" clip-rule="evenodd" d="M1059.65 278.779C1059.51 278.779 1059.36 278.784 1059.22 278.793C1058.86 278.815 1058.55 278.536 1058.55 278.175C1058.56 278.073 1058.56 277.97 1058.56 277.868C1058.56 266.289 1046.92 256.903 1032.56 256.903C1018.2 256.903 1006.57 266.289 1006.57 277.868C1006.57 277.977 1006.57 278.086 1006.57 278.195C1006.58 278.56 1006.26 278.843 1005.89 278.809C1005.68 278.789 1005.47 278.779 1005.25 278.779C1001.92 278.779 999.216 281.018 999.216 283.778C999.216 286.539 1001.92 288.777 1005.25 288.777C1006.61 288.777 1007.85 288.406 1008.86 287.783C1009.17 287.588 1009.58 287.669 1009.79 287.972C1013.29 293.094 1019.36 296.907 1026.61 298.276C1027.24 298.394 1027.67 298.953 1027.64 299.58L1026.95 311.402H1038.18L1037.49 299.58C1037.45 298.953 1037.89 298.394 1038.51 298.276C1045.72 296.915 1051.77 293.138 1055.28 288.06C1055.48 287.769 1055.87 287.68 1056.18 287.861C1057.16 288.437 1058.36 288.777 1059.65 288.777C1062.98 288.777 1065.69 286.539 1065.69 283.778C1065.69 281.018 1062.98 278.779 1059.65 278.779Z" fill="#F7D3BB"/>
<path fill-rule="evenodd" clip-rule="evenodd" d="M1058.56 277.868C1058.56 266.289 1046.92 256.903 1032.56 256.903C1032.3 256.903 1032.05 256.908 1031.79 256.914C1038.87 255.549 1043.99 251.282 1043.71 246.529C1043.42 241.415 1036.99 237.548 1029.02 237.452C1032.25 236.554 1034.59 233.96 1034.59 230.896C1034.59 227.087 1030.98 224 1026.53 224C1022.08 224 1018.47 227.087 1018.47 230.896C1018.47 234.32 1021.39 237.154 1025.21 237.692C1017.48 238.762 1011.72 243.253 1012.01 248.289C1012.3 253.496 1018.96 257.406 1027.13 257.366C1015.38 259.381 1006.57 267.792 1006.57 277.868C1006.57 277.977 1006.57 278.086 1006.57 278.195C1006.57 278.449 1006.6 278.415 1006.6 278.415C1009 277.977 1022.64 277.296 1028.55 261.81C1028.57 261.809 1028.53 261.811 1028.55 261.81C1033.14 277.546 1058.55 278.175 1058.55 278.175" fill="#E58857"/>
<path fill-rule="evenodd" clip-rule="evenodd" d="M1022.32 282.574C1022.07 282.819 1021.67 282.819 1021.42 282.574C1021.17 282.329 1021.17 281.931 1021.42 281.686C1021.74 281.372 1022.3 280.92 1023.08 280.472C1026.07 278.731 1029.42 278.668 1032.65 281.39C1032.92 281.615 1032.95 282.012 1032.72 282.275C1032.49 282.539 1032.09 282.57 1031.82 282.345C1029.05 280.01 1026.29 280.063 1023.72 281.554C1023.33 281.781 1022.98 282.025 1022.67 282.268C1022.5 282.411 1022.38 282.519 1022.32 282.574Z" fill="#010101"/>
<path fill-rule="evenodd" clip-rule="evenodd" d="M1040.69 282.448C1040.51 282.747 1040.12 282.847 1039.81 282.672C1039.51 282.496 1039.41 282.112 1039.59 281.813C1039.82 281.426 1040.24 280.875 1040.87 280.324C1043.39 278.097 1046.65 278.097 1050.29 281.686C1050.54 281.932 1050.54 282.329 1050.29 282.574C1050.04 282.819 1049.64 282.819 1049.39 282.574C1046.24 279.467 1043.75 279.467 1041.72 281.259C1041.42 281.524 1041.16 281.809 1040.94 282.093C1040.81 282.26 1040.72 282.385 1040.69 282.448Z" fill="#010101"/>
<path fill-rule="evenodd" clip-rule="evenodd" d="M1026.01 286.54H1042.13C1042.5 286.54 1042.79 286.844 1042.77 287.204C1042.75 287.474 1042.69 287.923 1042.56 288.493C1042.33 289.436 1041.97 290.381 1041.44 291.266C1039.89 293.867 1037.24 295.415 1033.33 295.354C1029.99 295.302 1027.75 293.749 1026.46 291.23C1026.01 290.346 1025.71 289.405 1025.53 288.465C1025.42 287.899 1025.38 287.453 1025.37 287.187C1025.36 286.833 1025.65 286.54 1026.01 286.54Z" fill="#E74B33"/>
<path fill-rule="evenodd" clip-rule="evenodd" d="M1028.04 291.712C1028.29 291.644 1028.57 291.576 1028.88 291.513C1030.4 291.203 1031.97 291.113 1033.46 291.38C1035.17 291.686 1036.61 292.444 1037.65 293.737C1037.91 294.055 1037.8 294.524 1037.42 294.696C1037.22 294.789 1036.87 294.92 1036.4 295.048C1033.92 295.717 1030.87 295.565 1028.61 293.852C1028.24 293.575 1027.86 293.206 1027.49 292.867C1027.13 292.544 1027.25 291.959 1027.71 291.808C1027.78 291.787 1027.89 291.754 1028.04 291.712Z" fill="#D31E9C"/>
<mask id="mask1" mask-type="alpha" maskUnits="userSpaceOnUse" x="984" y="310" width="102" height="90">
<path fill-rule="evenodd" clip-rule="evenodd" d="M984.376 317.122C984.376 317.122 1003.25 310.74 1034.7 310.73C1056.39 310.724 1072.88 312.971 1085.36 325.044L1072.36 352.933L1080.77 392.872C1080.77 392.872 1044.79 406.792 1001.58 393.535L998.718 344.15L984.376 317.122Z" fill="white"/>
</mask>
<g mask="url(#mask1)">
<path fill-rule="evenodd" clip-rule="evenodd" d="M984.376 317.122C984.376 317.122 1003.25 310.74 1034.7 310.73C1056.39 310.724 1072.88 312.971 1085.36 325.044L1072.36 352.933L1080.77 392.872C1080.77 392.872 1044.79 406.792 1001.58 393.535L998.718 344.15L984.376 317.122Z" fill="#7D27C4"/>
<path fill-rule="evenodd" clip-rule="evenodd" d="M1060.55 397.108L1061.59 401.167C1061.67 401.503 1061.47 401.844 1061.13 401.928C1060.79 402.013 1060.44 401.809 1060.35 401.473L1059.32 397.414C1059.23 397.078 1059.44 396.737 1059.78 396.652C1060.12 396.568 1060.47 396.772 1060.55 397.108ZM997.844 396.778L998.28 400.941C998.316 401.286 998.062 401.594 997.712 401.63C997.362 401.666 997.049 401.415 997.013 401.07L996.577 396.907C996.54 396.562 996.795 396.254 997.145 396.218C997.495 396.183 997.807 396.433 997.844 396.778ZM1031.23 399.362C1031.34 399.691 1031.16 400.047 1030.83 400.158L1026.81 401.498C1026.47 401.609 1026.11 401.433 1026 401.104C1025.89 400.776 1026.07 400.419 1026.4 400.308L1030.42 398.968C1030.76 398.857 1031.12 399.034 1031.23 399.362ZM982.847 395.186C982.955 395.516 982.77 395.87 982.435 395.976L978.393 397.255C978.058 397.361 977.699 397.179 977.591 396.849C977.484 396.519 977.668 396.165 978.003 396.06L982.046 394.78C982.381 394.674 982.74 394.856 982.847 395.186ZM1080.29 386.275L1081.08 390.388C1081.14 390.728 1080.92 391.057 1080.57 391.121C1080.23 391.185 1079.89 390.961 1079.83 390.62L1079.04 386.507C1078.98 386.166 1079.2 385.838 1079.55 385.774C1079.9 385.71 1080.23 385.934 1080.29 386.275ZM1008.9 384.881C1009.04 385.2 1008.89 385.568 1008.56 385.703L1004.65 387.329C1004.33 387.463 1003.95 387.314 1003.82 386.994C1003.68 386.675 1003.83 386.306 1004.15 386.172L1008.07 384.546C1008.39 384.411 1008.77 384.561 1008.9 384.881ZM1055.21 385.763C1055.56 385.763 1055.85 386.044 1055.85 386.391C1055.85 386.738 1055.56 387.019 1055.21 387.019H1050.96C1050.61 387.019 1050.33 386.738 1050.33 386.391C1050.33 386.044 1050.61 385.763 1050.96 385.763H1055.21ZM1072.04 380.67C1072.27 380.937 1072.23 381.333 1071.96 381.555L1068.7 384.237C1068.43 384.459 1068.03 384.423 1067.81 384.157C1067.58 383.891 1067.62 383.495 1067.89 383.273L1071.15 380.591C1071.42 380.369 1071.82 380.404 1072.04 380.67ZM1036.77 378.275L1037.81 382.334C1037.9 382.67 1037.69 383.011 1037.35 383.096C1037.01 383.18 1036.66 382.976 1036.58 382.64L1035.54 378.581C1035.45 378.245 1035.66 377.904 1036 377.82C1036.34 377.735 1036.69 377.939 1036.77 378.275ZM1094.94 380.473C1094.97 380.818 1094.72 381.123 1094.36 381.153L1090.14 381.523C1089.78 381.553 1089.48 381.298 1089.44 380.953C1089.41 380.607 1089.67 380.303 1090.02 380.272L1094.25 379.903C1094.6 379.872 1094.91 380.127 1094.94 380.473ZM1021.7 374.138L1022.48 378.251C1022.55 378.592 1022.32 378.92 1021.97 378.984C1021.63 379.048 1021.3 378.824 1021.23 378.483L1020.45 374.37C1020.38 374.03 1020.61 373.702 1020.95 373.637C1021.3 373.573 1021.63 373.797 1021.7 374.138ZM996.613 373.627C996.965 373.627 997.25 373.908 997.25 374.254C997.25 374.601 996.965 374.882 996.613 374.882H992.367C992.015 374.882 991.73 374.601 991.73 374.254C991.73 373.908 992.015 373.627 992.367 373.627H996.613ZM1013.45 368.534C1013.67 368.8 1013.64 369.196 1013.37 369.418L1010.11 372.1C1009.84 372.322 1009.44 372.287 1009.21 372.021C1008.98 371.754 1009.02 371.359 1009.29 371.136L1012.55 368.454C1012.82 368.232 1013.22 368.268 1013.45 368.534ZM980.302 365.301L981.338 369.36C981.423 369.696 981.216 370.037 980.875 370.122C980.534 370.207 980.188 370.003 980.102 369.666L979.066 365.608C978.98 365.272 979.187 364.93 979.528 364.846C979.87 364.761 980.216 364.965 980.302 365.301ZM1050.02 365.246L1051.15 369.28C1051.25 369.614 1051.05 369.96 1050.71 370.052C1050.37 370.144 1050.02 369.948 1049.93 369.614L1048.8 365.579C1048.7 365.245 1048.9 364.9 1049.24 364.807C1049.58 364.715 1049.93 364.911 1050.02 365.246ZM1036.35 368.336C1036.38 368.681 1036.12 368.986 1035.77 369.017L1031.54 369.386C1031.19 369.416 1030.88 369.161 1030.85 368.816C1030.82 368.471 1031.08 368.166 1031.43 368.135L1035.66 367.766C1036.01 367.735 1036.32 367.991 1036.35 368.336ZM1080.04 359.088L1083.65 361.29C1083.95 361.472 1084.05 361.859 1083.86 362.154C1083.68 362.449 1083.28 362.54 1082.98 362.358L1079.37 360.156C1079.07 359.974 1078.98 359.587 1079.17 359.292C1079.35 358.997 1079.74 358.906 1080.04 359.088ZM1064.51 356.615L1064.94 360.778C1064.98 361.123 1064.73 361.432 1064.38 361.467C1064.03 361.503 1063.71 361.252 1063.68 360.907L1063.24 356.744C1063.2 356.399 1063.46 356.091 1063.81 356.055C1064.16 356.02 1064.47 356.27 1064.51 356.615ZM991.429 353.109L992.558 357.143C992.651 357.477 992.452 357.823 992.113 357.915C991.774 358.008 991.423 357.811 991.33 357.477L990.201 353.443C990.107 353.109 990.306 352.763 990.645 352.671C990.984 352.578 991.335 352.775 991.429 353.109ZM1048.87 352.723C1048.98 353.053 1048.8 353.407 1048.46 353.513L1044.42 354.792C1044.08 354.898 1043.73 354.716 1043.62 354.386C1043.51 354.056 1043.7 353.702 1044.03 353.596L1048.07 352.317C1048.41 352.211 1048.77 352.393 1048.87 352.723ZM1096.62 352.489C1096.73 352.818 1096.55 353.174 1096.22 353.285L1092.2 354.625C1091.86 354.736 1091.5 354.56 1091.39 354.231C1091.28 353.903 1091.46 353.547 1091.79 353.436L1095.81 352.096C1096.15 351.985 1096.51 352.161 1096.62 352.489ZM1021.45 346.951L1025.06 349.153C1025.36 349.336 1025.45 349.722 1025.26 350.017C1025.08 350.312 1024.69 350.403 1024.39 350.221L1020.78 348.019C1020.48 347.837 1020.39 347.45 1020.57 347.155C1020.76 346.86 1021.15 346.769 1021.45 346.951ZM1005.91 344.479L1006.35 348.642C1006.38 348.986 1006.13 349.295 1005.78 349.33C1005.43 349.366 1005.12 349.115 1005.08 348.771L1004.64 344.608C1004.61 344.263 1004.86 343.954 1005.21 343.919C1005.56 343.883 1005.88 344.134 1005.91 344.479ZM1039.51 344.342C1039.62 344.671 1039.44 345.027 1039.11 345.138L1035.09 346.478C1034.75 346.589 1034.39 346.413 1034.28 346.084C1034.17 345.756 1034.35 345.399 1034.68 345.288L1038.7 343.948C1039.03 343.837 1039.4 344.014 1039.51 344.342ZM1075.57 341.356C1075.7 341.675 1075.55 342.043 1075.23 342.178L1071.31 343.804C1070.99 343.939 1070.62 343.789 1070.48 343.469C1070.34 343.15 1070.49 342.782 1070.82 342.647L1074.73 341.021C1075.06 340.887 1075.43 341.036 1075.57 341.356ZM990.278 340.586C990.385 340.916 990.201 341.27 989.866 341.376L985.823 342.655C985.488 342.761 985.129 342.579 985.022 342.249C984.914 341.919 985.099 341.566 985.434 341.46L989.477 340.18C989.812 340.074 990.17 340.256 990.278 340.586ZM1053.78 333.584L1054.21 337.746C1054.25 338.091 1053.99 338.4 1053.64 338.435C1053.29 338.471 1052.98 338.22 1052.94 337.875L1052.51 333.713C1052.47 333.368 1052.73 333.059 1053.08 333.024C1053.43 332.988 1053.74 333.239 1053.78 333.584ZM1088.36 330.613L1089.15 334.726C1089.21 335.067 1088.98 335.395 1088.64 335.459C1088.29 335.523 1087.96 335.299 1087.9 334.959L1087.11 330.846C1087.04 330.505 1087.27 330.177 1087.62 330.113C1087.96 330.049 1088.3 330.273 1088.36 330.613ZM1016.97 329.219C1017.11 329.539 1016.95 329.907 1016.63 330.041L1012.72 331.667C1012.39 331.802 1012.02 331.652 1011.88 331.333C1011.75 331.013 1011.9 330.645 1012.22 330.51L1016.14 328.884C1016.46 328.75 1016.83 328.9 1016.97 329.219ZM1047.63 320.005L1050.74 322.853C1051 323.089 1051.01 323.486 1050.78 323.74C1050.54 323.994 1050.13 324.009 1049.88 323.773L1046.76 320.925C1046.51 320.689 1046.49 320.292 1046.73 320.038C1046.97 319.784 1047.37 319.769 1047.63 320.005ZM1028.72 316.373L1029.5 320.486C1029.57 320.827 1029.34 321.155 1028.99 321.219C1028.65 321.283 1028.31 321.059 1028.25 320.718L1027.46 316.605C1027.4 316.265 1027.63 315.936 1027.97 315.872C1028.32 315.808 1028.65 316.032 1028.72 316.373ZM1004.68 317.965C1005.03 317.965 1005.32 318.246 1005.32 318.593C1005.32 318.94 1005.03 319.221 1004.68 319.221H1000.43C1000.08 319.221 999.798 318.94 999.798 318.593C999.798 318.246 1000.08 317.965 1000.43 317.965H1004.68ZM986.034 311.105L987.07 315.163C987.156 315.5 986.949 315.841 986.608 315.925C986.267 316.01 985.92 315.806 985.835 315.47L984.799 311.411C984.713 311.075 984.92 310.734 985.261 310.649C985.602 310.565 985.948 310.769 986.034 311.105ZM1077.6 312.897C1077.73 313.217 1077.58 313.585 1077.26 313.72L1073.35 315.345C1073.02 315.48 1072.65 315.33 1072.51 315.011C1072.37 314.691 1072.53 314.323 1072.85 314.188L1076.76 312.563C1077.09 312.428 1077.46 312.578 1077.6 312.897Z" fill="#010101"/>
</g>
<path fill-rule="evenodd" clip-rule="evenodd" d="M984.846 316.953C984.56 317.053 984.402 317.112 984.38 317.12L984.377 317.121L998.718 344.15L998.814 344.618L965.412 356.118C965.412 356.118 982.195 370.259 995.054 378.664C998.536 380.94 1001.03 383.696 1002.81 386.504C1006.6 392.502 1007.7 399.787 1006.1 406.675L1006.04 406.95L1003.42 420.702C1003.03 422.771 1001.62 424.554 999.635 425.324C998.858 425.625 998.126 425.733 997.675 425.377C996.321 424.309 997.49 413.483 997.49 413.483C997.49 413.483 991.822 424.382 987.22 427.85C982.618 431.319 981.175 429.924 980.979 429.36C980.408 427.721 986.015 419.78 987.334 417.474C987.334 417.474 983.781 420.18 982.695 421.615C981.457 423.249 981.335 425.015 978.222 428.484C976.666 430.218 975.391 429.859 974.506 429.066C973.555 428.215 973.223 426.882 973.543 425.66L973.578 425.538L974.751 421.62C969.472 427.491 966.292 424.163 966.224 423.355C966.073 421.57 971.232 414.683 971.232 414.683C969.337 414.816 966.63 412.949 967.442 411.348C967.745 410.752 981.809 399.56 981.809 399.56C981.809 399.56 963.49 394.641 946.422 378.103C929.353 361.565 923.277 349.018 932.824 336.187C939.11 327.739 966.716 320.746 984.846 316.953ZM1085.12 324.794C1093.91 332.16 1105.37 345.037 1115.9 361.282L1116.22 361.776L1160.46 379.905L1184.42 375.044C1184.42 375.044 1193.3 373.287 1192.26 376.574C1191.87 377.809 1190.94 378.802 1189.76 379.376C1187.74 380.367 1184.02 382.132 1182.56 382.523C1186.38 381.695 1193.71 380.134 1195.55 379.731C1197.37 379.332 1203.45 377.271 1204.36 378.084C1205.47 379.082 1205.34 382.149 1203.46 383.258C1203.46 383.258 1206.59 382.475 1206.97 383.763C1207.61 385.882 1206.14 388.561 1202.43 389.914C1202.43 389.914 1204.68 389.574 1205.68 390.515C1206.24 391.033 1206.14 392.668 1205.84 393.262C1204.93 395.059 1202.28 396.128 1202.28 396.128C1202.28 396.128 1205.48 396.228 1205.58 397.431C1205.64 398.173 1205.59 399.85 1203.96 400.889C1201.31 402.57 1195.42 404.274 1188.55 404.769C1177.43 405.571 1159.29 404.184 1159.29 404.184L1159.25 404.186C1157.74 404.25 1120.02 405.689 1101.12 389.543C1101.12 389.543 1078.44 368.119 1073.3 354.164L1073.15 353.744L1072.65 352.32L1085.36 325.044C1085.28 324.958 1085.2 324.878 1085.12 324.794ZM1019.89 311.227C1039.05 309.692 1053.8 311.602 1053.8 311.602C1053.8 311.602 1050.46 320.885 1037.73 321.333C1025.26 321.773 1020.09 311.645 1019.89 311.239L1019.89 311.227Z" fill="#F7D3BB"/>
<path fill-rule="evenodd" clip-rule="evenodd" d="M984.427 410.928C984.563 411.116 984.519 411.377 984.328 411.512C983.874 411.831 983.438 412.092 982.733 412.48C980.348 413.793 979.511 414.37 978.069 415.958C977.806 416.247 977.372 417.003 976.836 418.081C976.732 418.291 976.624 418.512 976.514 418.742C976.196 419.406 975.871 420.119 975.556 420.833C975.445 421.082 975.344 421.314 975.254 421.522C975.2 421.647 975.162 421.735 975.142 421.782C975.052 421.995 974.803 422.096 974.587 422.007C974.371 421.918 974.268 421.673 974.359 421.459C974.38 421.411 974.418 421.32 974.473 421.194C974.563 420.984 974.666 420.75 974.777 420.498C975.095 419.778 975.424 419.058 975.746 418.385C975.858 418.151 975.967 417.927 976.073 417.713C976.646 416.561 977.102 415.768 977.436 415.4C978.957 413.725 979.858 413.104 982.319 411.749C982.998 411.375 983.412 411.128 983.835 410.831C984.026 410.696 984.291 410.74 984.427 410.928ZM990.403 413.512C990.589 413.652 990.625 413.914 990.483 414.098L987.672 417.729C987.529 417.913 987.263 417.948 987.077 417.808C986.89 417.667 986.854 417.405 986.997 417.221L989.807 413.59C989.95 413.407 990.216 413.371 990.403 413.512ZM979.035 407.599C979.215 407.747 979.239 408.011 979.089 408.189C978.657 408.7 977.411 409.855 975.563 411.487C975.458 411.579 975.458 411.579 975.354 411.671C974.512 412.412 973.611 413.195 972.711 413.971C972.395 414.242 972.102 414.494 971.84 414.718C971.682 414.853 971.569 414.949 971.509 415.001C971.331 415.152 971.063 415.132 970.91 414.957C970.757 414.782 970.776 414.518 970.954 414.367C971.014 414.316 971.126 414.221 971.283 414.086C971.545 413.862 971.837 413.611 972.152 413.34C973.051 412.567 973.949 411.786 974.788 411.047C974.892 410.955 974.892 410.955 974.996 410.864C976.803 409.268 978.043 408.118 978.437 407.653C978.587 407.475 978.854 407.451 979.035 407.599ZM986.044 398.066C986.124 398.283 986.009 398.523 985.788 398.601L981.952 399.955C981.731 400.033 981.488 399.92 981.409 399.702C981.33 399.484 981.445 399.245 981.666 399.167L985.502 397.813C985.722 397.735 985.965 397.848 986.044 398.066ZM1202.68 395.997C1202.75 396.216 1202.63 396.453 1202.41 396.526C1202.37 396.539 1202.29 396.563 1202.18 396.597C1202 396.652 1201.79 396.714 1201.56 396.78C1200.88 396.969 1200.14 397.158 1199.33 397.334C1197.19 397.805 1195.05 398.101 1193.04 398.137C1191.48 398.165 1190.06 398.032 1188.81 397.714C1188.59 397.657 1188.45 397.428 1188.51 397.205C1188.57 396.981 1188.8 396.846 1189.03 396.904C1190.19 397.201 1191.54 397.327 1193.03 397.3C1194.97 397.265 1197.05 396.977 1199.15 396.517C1199.93 396.344 1200.67 396.16 1201.32 395.975C1201.55 395.911 1201.76 395.851 1201.93 395.797C1202.04 395.765 1202.11 395.743 1202.14 395.731C1202.37 395.659 1202.61 395.778 1202.68 395.997ZM1185.65 381.669C1185.7 381.895 1185.56 382.119 1185.33 382.171L1179.24 383.547C1179.24 383.662 1179.25 383.788 1179.26 383.923C1179.36 386.149 1179.3 388.624 1178.94 390.967C1178.67 392.774 1178.23 394.344 1177.6 395.613C1177.5 395.821 1177.25 395.908 1177.04 395.807C1176.83 395.706 1176.74 395.456 1176.84 395.248C1177.42 394.065 1177.84 392.572 1178.1 390.843C1178.45 388.562 1178.51 386.139 1178.41 383.964C1178.4 383.765 1178.39 383.589 1178.38 383.437C1178.37 383.347 1178.37 383.285 1178.36 383.254C1178.35 383.046 1178.49 382.858 1178.69 382.811L1185.14 381.355C1185.37 381.303 1185.6 381.444 1185.65 381.669ZM1202.84 389.793C1202.9 390.014 1202.78 390.248 1202.55 390.315C1202.49 390.333 1202.38 390.365 1202.22 390.411C1201.95 390.486 1201.63 390.57 1201.28 390.66C1200.28 390.917 1199.16 391.174 1197.96 391.414C1194.66 392.073 1191.36 392.48 1188.28 392.51C1188.02 392.513 1187.76 392.512 1187.5 392.509C1187.27 392.507 1187.08 392.317 1187.08 392.086C1187.09 391.855 1187.28 391.67 1187.51 391.672C1187.76 391.675 1188.01 391.676 1188.27 391.673C1191.29 391.644 1194.54 391.243 1197.79 390.594C1198.97 390.357 1200.08 390.103 1201.07 389.85C1201.41 389.761 1201.72 389.679 1201.99 389.605C1202.14 389.561 1202.25 389.53 1202.31 389.514C1202.53 389.447 1202.77 389.572 1202.84 389.793ZM1204.19 382.66C1204.33 382.843 1204.3 383.106 1204.11 383.247C1201.64 385.112 1191.06 387.939 1185.95 388.194C1185.72 388.206 1185.52 388.028 1185.51 387.797C1185.5 387.566 1185.68 387.37 1185.91 387.358C1190.86 387.11 1201.29 384.326 1203.6 382.582C1203.78 382.442 1204.05 382.477 1204.19 382.66ZM960.354 353.937L965.551 355.723C965.773 355.8 965.89 356.038 965.812 356.256C965.735 356.475 965.493 356.59 965.272 356.514L960.074 354.728C959.853 354.652 959.736 354.413 959.813 354.195C959.891 353.976 960.133 353.861 960.354 353.937Z" fill="#D7A17C"/>
<path fill-rule="evenodd" clip-rule="evenodd" d="M1235.9 550.524C1235.9 550.524 1246.34 580.339 1260.48 587.284C1260.48 587.284 1268.82 590.82 1269.66 580.58L1267 546.795L1259.48 539.873L1235.9 550.524Z" fill="#7F7F7F"/>
<path fill-rule="evenodd" clip-rule="evenodd" d="M1192.98 360.784C1192.09 373.66 1197.3 401.693 1198.43 407.55C1181.26 416.94 1191.16 444.471 1191.16 444.471L1231.09 551.896C1258.25 554.8 1271.02 525.766 1271.02 525.766L1228.47 450.278C1251.23 456.766 1263.02 460.067 1263.84 460.182C1264.93 460.333 1324.83 460.402 1333.38 460.038C1372.39 460.038 1342.27 392.979 1342.27 392.979C1342.27 392.979 1327.55 393.044 1298.1 393.174L1297.2 393.178C1297.2 393.178 1236.18 356.159 1224.91 350.296C1212.94 344.068 1193.98 346.363 1192.98 360.784Z" fill="#FFE2BD"/>
<path fill-rule="evenodd" clip-rule="evenodd" d="M1220.26 445.997C1220.15 446.201 1220.23 446.454 1220.43 446.562L1228.27 450.647C1228.48 450.755 1228.74 450.677 1228.85 450.473C1228.95 450.269 1228.88 450.015 1228.67 449.907L1220.83 445.822C1220.62 445.714 1220.37 445.792 1220.26 445.997ZM1222.58 395.049C1222.39 395.187 1222.35 395.45 1222.49 395.635L1229.37 404.671L1214.08 404.05C1208.02 403.894 1203.06 404.81 1199.14 406.707C1198.93 406.809 1198.84 407.06 1198.95 407.267C1199.05 407.475 1199.3 407.56 1199.52 407.458C1203.3 405.625 1208.12 404.734 1214.05 404.887L1277.55 407.467C1277.64 407.471 1277.73 407.446 1277.8 407.395L1286.59 401.509C1286.78 401.379 1286.83 401.118 1286.7 400.927C1286.57 400.736 1286.31 400.687 1286.11 400.816L1277.44 406.625L1230.46 404.715L1223.17 395.133C1223.03 394.948 1222.76 394.91 1222.58 395.049Z" fill="#94C0E9"/>
<path fill-rule="evenodd" clip-rule="evenodd" d="M1292.48 278.578C1292.63 278.578 1292.77 278.583 1292.91 278.591C1293.27 278.614 1293.59 278.335 1293.58 277.974C1293.58 277.872 1293.57 277.769 1293.57 277.667C1293.57 266.088 1305.21 256.701 1319.57 256.701C1333.93 256.701 1345.57 266.088 1345.57 277.667C1345.57 277.776 1345.57 277.885 1345.56 277.993C1345.56 278.359 1345.87 278.641 1346.24 278.607C1346.45 278.588 1346.66 278.578 1346.88 278.578C1350.21 278.578 1352.92 280.816 1352.92 283.577C1352.92 286.338 1350.21 288.576 1346.88 288.576C1345.53 288.576 1344.28 288.205 1343.27 287.582C1342.96 287.387 1342.55 287.468 1342.35 287.771C1338.84 292.893 1332.77 296.705 1325.52 298.075C1324.9 298.193 1324.46 298.751 1324.5 299.378L1325.18 311.201H1313.96L1314.65 299.378C1314.68 298.751 1314.24 298.193 1313.62 298.075C1306.41 296.713 1300.37 292.937 1296.86 287.859C1296.65 287.567 1296.26 287.479 1295.96 287.659C1294.97 288.235 1293.78 288.576 1292.48 288.576C1289.15 288.576 1286.45 286.338 1286.45 283.577C1286.45 280.816 1289.15 278.578 1292.48 278.578Z" fill="#8D574D"/>
<path fill-rule="evenodd" clip-rule="evenodd" d="M1345.56 277.993C1345.56 277.993 1326.14 274.41 1324.81 262.043C1324.81 262.043 1320.17 276.968 1293.58 277.974C1293.58 277.974 1292.6 269.98 1298.05 263.23C1303.51 256.479 1315.93 253.736 1326.09 254.897C1337.51 256.199 1346.85 268.925 1345.56 277.993Z" fill="#382A2A"/>
<mask id="mask2" mask-type="alpha" maskUnits="userSpaceOnUse" x="1293" y="228" width="53" height="50">
<path fill-rule="evenodd" clip-rule="evenodd" d="M1327.42 228.185C1317.67 228.185 1309.77 234.933 1309.77 243.258C1309.77 247.449 1311.78 251.24 1315.01 253.972C1289.24 256.2 1293.58 277.973 1293.58 277.973L1312.2 265.002L1345.61 274.872C1345.61 274.872 1345.39 262.686 1334.95 256.891C1340.93 254.479 1345.06 249.281 1345.06 243.258C1345.06 234.933 1337.16 228.185 1327.42 228.185Z" fill="white"/>
</mask>
<g mask="url(#mask2)">
<path fill-rule="evenodd" clip-rule="evenodd" d="M1327.42 228.185C1317.67 228.185 1309.77 234.933 1309.77 243.258C1309.77 247.449 1311.78 251.24 1315.01 253.972C1289.24 256.2 1293.58 277.973 1293.58 277.973L1312.2 265.002L1345.61 274.872C1345.61 274.872 1345.39 262.686 1334.95 256.891C1340.93 254.479 1345.06 249.281 1345.06 243.258C1345.06 234.933 1337.16 228.185 1327.42 228.185Z" fill="#1ED346"/>
<path fill-rule="evenodd" clip-rule="evenodd" d="M1315.44 273.052C1315.27 273.355 1315.3 273.735 1315.53 274.005L1322 281.713L1309.93 280.107C1309.47 280.045 1309.04 280.362 1308.97 280.816L1307.5 290.813L1302.25 278.643C1302.01 278.073 1301.24 277.955 1300.83 278.423L1292.98 287.368L1291.92 275.556C1291.88 275.096 1291.47 274.755 1291.01 274.795L1281.27 275.632L1288.66 268.315C1288.83 268.14 1288.92 267.897 1288.9 267.652L1287.73 254.546L1298.39 260.452C1298.7 260.626 1299.1 260.586 1299.37 260.352L1309.4 251.67L1307.49 264.131C1307.41 264.667 1307.86 265.137 1308.4 265.09L1320.73 264.03L1315.44 273.052ZM1279.96 275.745L1279.25 276.448L1279.34 276.638L1280.35 276.552L1281.27 275.632L1279.96 275.745ZM1300.69 279.298L1301.12 279.365L1301.47 278.971L1301.68 279.451L1302.11 279.518L1301.84 279.828L1307.91 293.891L1309.81 280.936L1324.04 282.829L1316.18 273.471L1322.28 263.056L1309.2 264.181L1309.17 264.381L1309 264.199L1308.33 264.256L1308.43 263.605L1308.26 263.422L1308.46 263.405L1310.59 249.529L1298.81 259.723L1286.75 253.039L1288.05 267.725L1279.03 276.665L1291.08 275.629L1292.31 289.411L1300.85 279.676L1300.69 279.298ZM1290.7 241.053C1290.58 241.254 1290.56 241.492 1290.63 241.711L1293.46 250.547L1282.01 248.447C1281.54 248.36 1281.09 248.673 1281.01 249.139L1279.44 258.969L1272.18 251.064C1271.97 250.83 1271.64 250.735 1271.33 250.819L1260.31 253.807L1263.5 245.431C1263.63 245.091 1263.52 244.707 1263.23 244.481L1256.1 238.905L1265.35 235.421C1265.78 235.26 1266 234.796 1265.85 234.37L1262.06 223.346L1274.52 225.759C1274.76 225.806 1275.01 225.746 1275.2 225.595L1284.75 218.19V229.795C1284.75 230.222 1285.08 230.58 1285.51 230.627L1295.93 231.758L1290.7 241.053ZM1281.7 250.092L1281.72 250.074L1281.85 249.27L1282.66 249.419L1282.69 249.4L1282.69 249.423L1294.69 251.626L1291.44 241.459L1297.29 231.064L1285.6 229.795V216.467L1274.68 224.937L1260.78 222.246L1265.05 234.639L1254.41 238.648L1262.7 245.137L1258.93 255.049L1271.55 251.626L1280 260.829L1281.72 250.097L1281.7 250.092ZM1267.21 294.271C1267.09 294.102 1266.9 293.985 1266.7 293.943L1259.29 292.443L1264.59 287.798C1264.9 287.523 1264.96 287.063 1264.74 286.716L1261.05 281.137L1269.84 280.43C1270.12 280.407 1270.38 280.246 1270.51 280.001L1274.38 273.116L1278.49 281.341C1278.6 281.564 1278.81 281.726 1279.05 281.785L1286.33 283.523L1281.17 287.807C1280.97 287.972 1280.86 288.217 1280.87 288.472L1281.13 296.918L1275.04 293.611C1274.6 293.369 1274.04 293.566 1273.85 294.031L1271.41 299.975L1267.21 294.271ZM1274.22 295.077L1274.35 295.032L1274.63 294.344L1275.29 294.702L1275.42 294.658L1275.38 294.751L1282.03 298.36L1281.72 288.447L1288.15 283.099L1279.25 280.971L1274.43 271.31L1269.77 279.595L1259.56 280.417L1264.02 287.173L1257.46 292.927L1266.53 294.763L1271.63 301.69L1274.31 295.126L1274.22 295.077ZM1324.95 212.165L1326.6 224.423C1326.63 224.676 1326.78 224.899 1327 225.031L1337.13 231.006L1321.73 234.795C1321.35 234.888 1321.09 235.223 1321.09 235.607V246.195L1314.1 237.087C1313.86 236.765 1313.41 236.662 1313.05 236.842L1301.32 242.625L1308.23 229.006C1308.33 228.815 1308.35 228.595 1308.29 228.39L1304 214.366L1315.08 222.399C1315.44 222.659 1315.94 222.602 1316.23 222.267L1324.95 212.165ZM1327.44 224.312L1325.54 210.189L1315.58 221.725L1302.45 212.205L1307.47 228.631L1299.42 244.498L1313.43 237.591L1321.93 248.692V235.607L1339.33 231.328L1327.44 224.312ZM1344.26 292.774C1344.06 292.939 1343.95 293.183 1343.96 293.437L1344.2 300.903L1336.59 293.952C1336.31 293.691 1335.88 293.655 1335.56 293.864L1329.91 297.475L1332.43 290.748C1332.57 290.367 1332.42 289.939 1332.06 289.735L1324.88 285.619L1334.82 284.474C1335.03 284.45 1335.23 284.347 1335.37 284.186L1341.59 276.979L1341.04 285.595C1341.01 286.037 1341.33 286.424 1341.78 286.479L1350.48 287.541L1344.26 292.774ZM1323.65 284.918L1322.53 285.047L1322.49 285.22L1323.47 285.781L1324.88 285.619L1323.65 284.918ZM1344.81 293.411L1352.5 286.945L1341.88 285.648L1342.6 274.519L1334.72 283.643L1322.25 285.08L1331.63 290.459L1328.23 299.548L1336.02 294.566L1345.11 302.879L1344.81 293.411ZM1371.09 247.486L1364.75 258.743C1364.64 258.943 1364.61 259.181 1364.68 259.4L1368.12 270.155L1354.26 267.61C1353.79 267.523 1353.34 267.836 1353.26 268.302L1351.34 280.312L1342.49 270.672C1342.28 270.437 1341.95 270.342 1341.64 270.426L1328.25 274.06L1332.14 263.814C1332.27 263.474 1332.17 263.09 1331.88 262.865L1323.19 256.064L1334.44 251.823C1334.87 251.662 1335.09 251.198 1334.94 250.772L1330.35 237.411L1345.42 240.33C1345.66 240.377 1345.91 240.318 1346.11 240.167L1357.71 231.165V245.284C1357.71 245.711 1358.04 246.069 1358.47 246.116L1371.09 247.486ZM1353.95 269.255L1353.97 269.237L1354.1 268.432L1354.92 268.582L1354.94 268.563L1354.94 268.586L1369.36 271.233L1365.49 259.149L1372.45 246.792L1358.56 245.284V229.441L1345.58 239.509L1329.07 236.311L1334.14 251.041L1321.5 255.806L1331.35 263.52L1326.87 275.302L1341.86 271.233L1351.9 282.172L1353.97 269.26L1353.95 269.255Z" fill="#382A2A"/>
</g>
<mask id="mask3" mask-type="alpha" maskUnits="userSpaceOnUse" x="1298" y="251" width="29" height="15">
<path fill-rule="evenodd" clip-rule="evenodd" d="M1312.2 265.002C1312.2 265.002 1321.98 265.95 1326.34 256.13C1326.34 256.13 1316.57 251.744 1312.2 265.002ZM1298.55 251.394L1298.55 251.409C1298.54 251.891 1298.41 263.956 1312.2 265.002C1312.2 265.002 1312.57 253.422 1298.55 251.394Z" fill="white"/>
</mask>
<g mask="url(#mask3)">
<path fill-rule="evenodd" clip-rule="evenodd" d="M1312.2 265.002C1312.2 265.002 1321.98 265.95 1326.34 256.13C1326.34 256.13 1316.57 251.744 1312.2 265.002ZM1298.55 251.394L1298.55 251.409C1298.54 251.891 1298.41 263.956 1312.2 265.002C1312.2 265.002 1312.57 253.422 1298.55 251.394Z" fill="#15994E"/>
</g>
<path fill-rule="evenodd" clip-rule="evenodd" d="M1328.11 282.574C1328.36 282.819 1328.77 282.819 1329.01 282.574C1329.26 282.329 1329.26 281.931 1329.01 281.686C1328.7 281.372 1328.13 280.92 1327.36 280.472C1324.36 278.731 1321.02 278.668 1317.78 281.39C1317.51 281.615 1317.48 282.012 1317.71 282.275C1317.94 282.539 1318.34 282.57 1318.61 282.345C1321.38 280.01 1324.14 280.063 1326.71 281.554C1327.1 281.781 1327.46 282.025 1327.76 282.268C1327.94 282.411 1328.06 282.519 1328.11 282.574Z" fill="#302322"/>
<path fill-rule="evenodd" clip-rule="evenodd" d="M1309.75 282.448C1309.93 282.747 1310.32 282.847 1310.62 282.671C1310.92 282.496 1311.03 282.111 1310.85 281.812C1310.62 281.426 1310.19 280.874 1309.57 280.323C1307.05 278.097 1303.79 278.097 1300.14 281.686C1299.9 281.931 1299.9 282.329 1300.14 282.574C1300.39 282.819 1300.8 282.819 1301.05 282.574C1304.2 279.467 1306.69 279.467 1308.72 281.258C1309.02 281.523 1309.28 281.808 1309.5 282.092C1309.63 282.259 1309.71 282.385 1309.75 282.448Z" fill="#302322"/>
<path fill-rule="evenodd" clip-rule="evenodd" d="M1324.43 286.539H1308.3C1307.93 286.539 1307.64 286.843 1307.66 287.203C1307.68 287.474 1307.74 287.922 1307.88 288.492C1308.1 289.436 1308.46 290.38 1308.99 291.266C1310.54 293.867 1313.19 295.415 1317.11 295.353C1320.44 295.301 1322.69 293.748 1323.97 291.229C1324.42 290.345 1324.72 289.404 1324.9 288.464C1325.01 287.898 1325.05 287.453 1325.06 287.186C1325.07 286.832 1324.79 286.539 1324.43 286.539Z" fill="#E74B33"/>
<path fill-rule="evenodd" clip-rule="evenodd" d="M1322.39 291.711C1322.15 291.643 1321.86 291.575 1321.55 291.512C1320.04 291.202 1318.46 291.112 1316.97 291.379C1315.26 291.686 1313.82 292.443 1312.78 293.737C1312.53 294.054 1312.64 294.524 1313.01 294.696C1313.21 294.789 1313.56 294.919 1314.03 295.047C1316.51 295.716 1319.56 295.564 1321.82 293.851C1322.19 293.575 1322.57 293.206 1322.95 292.866C1323.31 292.543 1323.18 291.959 1322.72 291.807C1322.66 291.786 1322.55 291.753 1322.39 291.711Z" fill="#F24236"/>
<path fill-rule="evenodd" clip-rule="evenodd" d="M1349.03 317.69L1338.55 350.192C1340.15 367.626 1346.69 408.081 1346.69 408.081C1346.69 408.081 1336.28 445.387 1332.43 454.782C1328.57 464.178 1331.63 474.983 1337.03 481.499C1340.24 485.382 1342.89 487.445 1344.86 487.987C1346.34 488.393 1347.7 487.427 1348.04 486.98C1348.93 485.803 1348.72 484.239 1348.72 484.239C1348.72 484.239 1349.81 485.431 1352.18 486.365C1356.34 488.005 1357.54 484.051 1357.54 484.051C1357.54 484.051 1359.99 485.935 1362.21 485.324C1364.3 484.745 1364.41 482.604 1364.42 482.376L1364.42 482.356C1364.42 482.356 1368.67 485.935 1371.73 483.196C1374.09 481.095 1361.73 460.451 1361.73 460.451C1361.73 460.451 1363.02 457.936 1368.25 446.242C1380.59 418.7 1378.21 394.145 1378.21 394.145C1373.97 336.138 1363.79 324.794 1349.03 317.69ZM1288.01 341.548C1288.01 341.548 1284.3 342.94 1283.51 347.117C1282.72 351.295 1283.16 356.129 1283.16 356.129L1254.35 348.474C1254.35 348.474 1252.74 346.645 1235.64 409.051C1233.99 415.059 1231.44 426.227 1248.81 426.728C1255.43 426.92 1261.86 424.53 1266.85 420.229C1274.56 413.576 1288.25 400.275 1299.25 381.579C1299.25 381.579 1310.53 382.538 1315.3 380.971C1315.3 380.971 1318.79 380.033 1318.73 375.277C1318.73 375.277 1323.07 374.183 1322.54 369.135C1322.54 369.135 1322.54 368.004 1321.65 367.308C1321.65 367.308 1325.18 365.432 1324.68 361.587C1324.33 358.912 1322.98 358.257 1322.98 358.257L1323 358.236C1323.34 357.894 1327.55 353.53 1324.92 348.684C1322.18 343.636 1319.09 345.986 1319.09 345.986L1318.12 352.078C1318.12 352.078 1309.03 355.211 1300.64 354.863C1292.25 354.515 1289.07 352.252 1289.07 352.252L1288.01 341.548ZM1304.22 310.75C1304.22 310.75 1312.81 319.887 1325.74 310.906C1325.74 310.906 1313.71 309.971 1304.22 310.75Z" fill="#8D574D"/>
<mask id="mask4" mask-type="alpha" maskUnits="userSpaceOnUse" x="1253" y="310" width="119" height="89">
<path fill-rule="evenodd" clip-rule="evenodd" d="M1304.25 310.746C1303.05 310.828 1301.93 310.931 1300.91 311.058C1280.02 313.67 1262.31 327.151 1253.97 348.507C1253.01 350.964 1282.92 359.6 1283.16 356.128C1283.28 354.472 1282.72 351.294 1283.51 347.117C1284.3 342.94 1288.01 341.547 1288.01 341.547L1289.07 352.251C1289.07 352.251 1292.25 354.514 1300.64 354.863C1309.03 355.211 1318.12 352.077 1318.12 352.077L1319.09 345.986C1319.09 345.986 1322.18 343.636 1324.92 348.683C1327.66 353.731 1322.98 358.256 1322.98 358.256C1322.98 358.256 1324.33 358.912 1324.68 361.587C1325.18 365.432 1321.65 367.307 1321.65 367.307C1322.54 368.004 1322.54 369.135 1322.54 369.135C1323.07 374.182 1318.73 375.276 1318.73 375.276C1318.79 380.032 1315.3 380.971 1315.3 380.971C1310.53 382.537 1299.25 381.579 1299.25 381.579C1297.66 384.281 1289.69 395.416 1288.01 397.889C1298.47 399.152 1321.16 399.42 1341.63 394.121C1342.13 393.991 1343.96 393.645 1344.47 393.508L1341.21 358.558C1341.21 358.558 1360.92 360.893 1371.3 347.382C1365.97 328.461 1357.26 321.018 1350.97 317.689C1342.12 313.623 1341.63 313.481 1333.05 311.795C1331.39 311.468 1328.77 311.176 1325.67 310.952C1312.78 319.854 1304.22 310.749 1304.22 310.749L1304.25 310.746Z" fill="white"/>
</mask>
<g mask="url(#mask4)">
<path fill-rule="evenodd" clip-rule="evenodd" d="M1304.25 310.746C1303.05 310.828 1301.93 310.931 1300.91 311.058C1280.02 313.67 1262.31 327.151 1253.97 348.507C1253.01 350.964 1282.92 359.6 1283.16 356.128C1283.28 354.472 1282.72 351.294 1283.51 347.117C1284.3 342.94 1288.01 341.547 1288.01 341.547L1289.07 352.251C1289.07 352.251 1292.25 354.514 1300.64 354.863C1309.03 355.211 1318.12 352.077 1318.12 352.077L1319.09 345.986C1319.09 345.986 1322.18 343.636 1324.92 348.683C1327.66 353.731 1322.98 358.256 1322.98 358.256C1322.98 358.256 1324.33 358.912 1324.68 361.587C1325.18 365.432 1321.65 367.307 1321.65 367.307C1322.54 368.004 1322.54 369.135 1322.54 369.135C1323.07 374.182 1318.73 375.276 1318.73 375.276C1318.79 380.032 1315.3 380.971 1315.3 380.971C1310.53 382.537 1299.25 381.579 1299.25 381.579C1297.66 384.281 1289.69 395.416 1288.01 397.889C1298.47 399.152 1321.16 399.42 1341.63 394.121C1342.13 393.991 1343.96 393.645 1344.47 393.508L1341.21 358.558C1341.21 358.558 1360.92 360.893 1371.3 347.382C1365.97 328.461 1357.26 321.018 1350.97 317.689C1342.12 313.623 1341.63 313.481 1333.05 311.795C1331.39 311.468 1328.77 311.176 1325.67 310.952C1312.78 319.854 1304.22 310.749 1304.22 310.749L1304.25 310.746Z" fill="#CBA9E7"/>
<path fill-rule="evenodd" clip-rule="evenodd" d="M1316.61 386.799C1312.27 386.799 1308.76 390.265 1308.76 394.541C1308.76 398.817 1312.27 402.284 1316.61 402.284C1320.95 402.284 1324.47 398.817 1324.47 394.541C1324.47 390.265 1320.95 386.799 1316.61 386.799ZM1316.61 389.728C1319.31 389.728 1321.5 391.883 1321.5 394.541C1321.5 397.199 1319.31 399.354 1316.61 399.354C1313.92 399.354 1311.73 397.199 1311.73 394.541C1311.73 391.883 1313.92 389.728 1316.61 389.728ZM1277.12 379.266C1272.79 379.266 1269.27 382.732 1269.27 387.008C1269.27 391.284 1272.79 394.75 1277.12 394.75C1281.46 394.75 1284.98 391.284 1284.98 387.008C1284.98 382.732 1281.46 379.266 1277.12 379.266ZM1362.05 378.847C1357.71 378.847 1354.19 382.313 1354.19 386.589C1354.19 390.865 1357.71 394.332 1362.05 394.332C1366.38 394.332 1369.9 390.865 1369.9 386.589C1369.9 382.313 1366.38 378.847 1362.05 378.847ZM1277.12 382.195C1279.82 382.195 1282.01 384.35 1282.01 387.008C1282.01 389.666 1279.82 391.821 1277.12 391.821C1274.43 391.821 1272.24 389.666 1272.24 387.008C1272.24 384.35 1274.43 382.195 1277.12 382.195ZM1362.05 381.777C1364.74 381.777 1366.93 383.931 1366.93 386.589C1366.93 389.248 1364.74 391.402 1362.05 391.402C1359.35 391.402 1357.16 389.248 1357.16 386.589C1357.16 383.931 1359.35 381.777 1362.05 381.777ZM1324.26 357.085C1319.92 357.085 1316.4 360.551 1316.4 364.827C1316.4 369.103 1319.92 372.569 1324.26 372.569C1328.59 372.569 1332.11 369.103 1332.11 364.827C1332.11 360.551 1328.59 357.085 1324.26 357.085ZM1324.26 360.014C1326.95 360.014 1329.14 362.169 1329.14 364.827C1329.14 367.485 1326.95 369.64 1324.26 369.64C1321.56 369.64 1319.37 367.485 1319.37 364.827C1319.37 362.169 1321.56 360.014 1324.26 360.014ZM1293.26 353.318C1288.92 353.318 1285.4 356.785 1285.4 361.061C1285.4 365.337 1288.92 368.803 1293.26 368.803C1297.6 368.803 1301.12 365.337 1301.12 361.061C1301.12 356.785 1297.6 353.318 1293.26 353.318ZM1293.26 356.248C1295.96 356.248 1298.14 358.402 1298.14 361.061C1298.14 363.719 1295.96 365.873 1293.26 365.873C1290.56 365.873 1288.38 363.719 1288.38 361.061C1288.38 358.402 1290.56 356.248 1293.26 356.248ZM1352.28 345.367C1347.94 345.367 1344.43 348.833 1344.43 353.109C1344.43 357.385 1347.94 360.851 1352.28 360.851C1356.62 360.851 1360.14 357.385 1360.14 353.109C1360.14 348.833 1356.62 345.367 1352.28 345.367ZM1263.54 345.367C1259.2 345.367 1255.68 348.833 1255.68 353.109C1255.68 357.385 1259.2 360.851 1263.54 360.851C1267.88 360.851 1271.39 357.385 1271.39 353.109C1271.39 348.833 1267.88 345.367 1263.54 345.367ZM1352.28 348.296C1354.98 348.296 1357.16 350.451 1357.16 353.109C1357.16 355.767 1354.98 357.922 1352.28 357.922C1349.58 357.922 1347.4 355.767 1347.4 353.109C1347.4 350.451 1349.58 348.296 1352.28 348.296ZM1263.54 348.296C1266.23 348.296 1268.42 350.451 1268.42 353.109C1268.42 355.767 1266.23 357.922 1263.54 357.922C1260.84 357.922 1258.65 355.767 1258.65 353.109C1258.65 350.451 1260.84 348.296 1263.54 348.296ZM1289.44 323.186C1285.1 323.186 1281.58 326.652 1281.58 330.928C1281.58 335.204 1285.1 338.67 1289.44 338.67C1293.78 338.67 1297.29 335.204 1297.29 330.928C1297.29 326.652 1293.78 323.186 1289.44 323.186ZM1324.26 323.186C1319.92 323.186 1316.4 326.652 1316.4 330.928C1316.4 335.204 1319.92 338.67 1324.26 338.67C1328.59 338.67 1332.11 335.204 1332.11 330.928C1332.11 326.652 1328.59 323.186 1324.26 323.186ZM1289.44 326.115C1292.14 326.115 1294.32 328.27 1294.32 330.928C1294.32 333.586 1292.14 335.741 1289.44 335.741C1286.74 335.741 1284.56 333.586 1284.56 330.928C1284.56 328.27 1286.74 326.115 1289.44 326.115ZM1324.26 326.115C1326.95 326.115 1329.14 328.27 1329.14 330.928C1329.14 333.586 1326.95 335.741 1324.26 335.741C1321.56 335.741 1319.37 333.586 1319.37 330.928C1319.37 328.27 1321.56 326.115 1324.26 326.115ZM1353.98 315.234C1349.64 315.234 1346.12 318.7 1346.12 322.976C1346.12 327.252 1349.64 330.719 1353.98 330.719C1358.32 330.719 1361.83 327.252 1361.83 322.976C1361.83 318.7 1358.32 315.234 1353.98 315.234ZM1353.98 318.164C1356.68 318.164 1358.86 320.318 1358.86 322.976C1358.86 325.634 1356.68 327.789 1353.98 327.789C1351.28 327.789 1349.1 325.634 1349.1 322.976C1349.1 320.318 1351.28 318.164 1353.98 318.164ZM1261.41 312.304C1257.08 312.304 1253.56 315.771 1253.56 320.047C1253.56 324.323 1257.08 327.789 1261.41 327.789C1265.75 327.789 1269.27 324.323 1269.27 320.047C1269.27 315.771 1265.75 312.304 1261.41 312.304ZM1261.41 315.234C1264.11 315.234 1266.3 317.389 1266.3 320.047C1266.3 322.705 1264.11 324.86 1261.41 324.86C1258.72 324.86 1256.53 322.705 1256.53 320.047C1256.53 317.389 1258.72 315.234 1261.41 315.234Z" fill="#CBA9E7"/>
</g>
<path fill-rule="evenodd" clip-rule="evenodd" d="M1318.12 352.078L1320.85 331.959H1287.29L1289.07 352.252C1289.07 352.252 1298.5 359.395 1318.12 352.078Z" fill="#FF9624"/>
<path fill-rule="evenodd" clip-rule="evenodd" d="M1284.88 332.072H1322.58L1321.73 327.088H1285.73L1284.88 332.072Z" fill="#FF9624"/>
<path fill-rule="evenodd" clip-rule="evenodd" d="M1299.47 307.282H1301.55C1302.16 307.282 1302.67 307.758 1302.69 308.361L1303.5 327.108H1299.13L1298.33 308.456C1298.3 307.816 1298.82 307.282 1299.47 307.282Z" fill="#FF9624"/>
<path fill-rule="evenodd" clip-rule="evenodd" d="M1339.21 471.975C1339 472.072 1338.9 472.32 1339 472.53C1339.5 473.6 1340.23 474.801 1341.16 476.113C1341.81 477.029 1342.55 477.986 1343.36 478.973C1344.47 480.315 1345.65 481.645 1346.84 482.902C1347.25 483.342 1347.63 483.742 1347.98 484.094C1348.1 484.218 1348.21 484.326 1348.3 484.42C1348.36 484.476 1348.4 484.514 1348.42 484.534C1348.58 484.698 1348.85 484.698 1349.02 484.535C1349.18 484.371 1349.18 484.106 1349.02 483.943C1349 483.924 1348.96 483.887 1348.91 483.833C1348.82 483.741 1348.71 483.634 1348.59 483.513C1348.25 483.165 1347.87 482.769 1347.46 482.333C1346.29 481.088 1345.12 479.772 1344.02 478.446C1343.22 477.473 1342.49 476.531 1341.86 475.633C1340.95 474.359 1340.25 473.199 1339.77 472.182C1339.68 471.971 1339.42 471.879 1339.21 471.975ZM1347.63 471.17C1347.43 471.286 1347.36 471.542 1347.48 471.742C1347.49 471.768 1347.52 471.818 1347.57 471.889C1347.64 472.008 1347.72 472.145 1347.81 472.3C1348.08 472.743 1348.38 473.236 1348.72 473.766C1349.67 475.282 1350.67 476.798 1351.68 478.215C1352.35 479.15 1353 480.011 1353.62 480.782C1355.05 482.561 1356.29 483.806 1357.32 484.41C1357.52 484.529 1357.78 484.464 1357.9 484.265C1358.02 484.067 1357.96 483.81 1357.75 483.691C1356.84 483.153 1355.65 481.967 1354.28 480.262C1353.67 479.505 1353.03 478.657 1352.38 477.734C1351.38 476.332 1350.38 474.829 1349.44 473.325C1349.11 472.799 1348.81 472.31 1348.54 471.872C1348.45 471.719 1348.37 471.583 1348.3 471.465C1348.26 471.395 1348.23 471.347 1348.21 471.323C1348.1 471.123 1347.84 471.055 1347.63 471.17ZM1354.85 467.972C1354.65 468.08 1354.57 468.333 1354.68 468.537C1354.69 468.566 1354.72 468.62 1354.76 468.7C1354.84 468.831 1354.92 468.984 1355.01 469.156C1355.28 469.646 1355.58 470.193 1355.92 470.781C1356.87 472.462 1357.85 474.144 1358.83 475.715C1359.27 476.423 1359.7 477.095 1360.11 477.722C1361.8 480.278 1363.17 482.004 1364.18 482.699C1364.37 482.831 1364.63 482.786 1364.77 482.596C1364.9 482.407 1364.86 482.146 1364.66 482.013C1363.78 481.402 1362.45 479.729 1360.82 477.266C1360.41 476.645 1359.99 475.98 1359.55 475.278C1358.58 473.718 1357.6 472.046 1356.66 470.374C1356.33 469.789 1356.03 469.245 1355.76 468.758C1355.67 468.587 1355.58 468.436 1355.51 468.305L1355.47 468.224C1355.45 468.189 1355.44 468.163 1355.43 468.146C1355.32 467.942 1355.06 467.864 1354.85 467.972ZM1353.62 405.002C1352.36 405.241 1351.25 405.513 1350.29 405.812C1348.93 406.232 1347.92 406.685 1347.19 407.145C1346.74 407.434 1346.47 407.673 1346.35 407.831C1346.21 408.016 1346.25 408.278 1346.44 408.416C1346.63 408.555 1346.89 408.516 1347.03 408.331C1347.09 408.256 1347.28 408.085 1347.65 407.849C1348.31 407.432 1349.26 407.009 1350.54 406.611C1351.47 406.322 1352.55 406.057 1353.78 405.824C1354.01 405.78 1354.16 405.561 1354.12 405.334C1354.07 405.107 1353.85 404.958 1353.62 405.002ZM1283.18 355.71C1282.95 355.699 1282.75 355.876 1282.74 356.107L1282.74 356.122C1282.74 356.137 1282.74 356.158 1282.73 356.242C1282.73 356.352 1282.72 356.48 1282.71 356.624C1282.69 357.036 1282.66 357.495 1282.63 357.99C1282.55 359.402 1282.45 360.814 1282.35 362.132C1282.29 362.931 1282.22 363.671 1282.16 364.34C1282.12 364.375 1282.06 364.416 1282.01 364.463C1281.76 364.654 1281.48 364.876 1281.17 365.128C1280.27 365.847 1279.27 366.655 1278.19 367.536C1275.11 370.052 1272.03 372.641 1269.15 375.16C1268.29 375.914 1267.46 376.652 1266.66 377.371C1263.3 380.406 1260.6 383.036 1258.75 385.146C1258.6 385.32 1258.62 385.585 1258.79 385.736C1258.97 385.887 1259.24 385.868 1259.39 385.693C1261.22 383.613 1263.89 381.003 1267.24 377.989C1268.03 377.272 1268.86 376.537 1269.72 375.785C1272.59 373.274 1275.66 370.691 1278.73 368.18C1279.81 367.302 1280.81 366.495 1281.71 365.778C1282.02 365.527 1282.3 365.305 1282.54 365.115C1282.68 365.001 1282.78 364.923 1282.83 364.883C1282.92 364.812 1282.98 364.709 1282.99 364.596C1283.06 363.876 1283.13 363.071 1283.2 362.196C1283.3 360.873 1283.4 359.456 1283.48 358.039C1283.51 357.543 1283.54 357.083 1283.56 356.669C1283.57 356.525 1283.57 356.396 1283.58 356.285C1283.59 356.173 1283.59 356.173 1283.59 356.149C1283.6 355.918 1283.42 355.722 1283.18 355.71ZM1318.59 374.884C1318.56 374.893 1318.51 374.912 1318.42 374.939C1318.29 374.985 1318.12 375.036 1317.93 375.091C1317.39 375.251 1316.76 375.41 1316.05 375.56C1314.13 375.962 1312.01 376.214 1309.72 376.241C1309.49 376.244 1309.3 376.433 1309.3 376.664C1309.3 376.895 1309.5 377.08 1309.73 377.078C1312.07 377.051 1314.26 376.792 1316.23 376.378C1316.96 376.224 1317.61 376.059 1318.18 375.894C1318.37 375.835 1318.55 375.781 1318.7 375.732C1318.79 375.702 1318.85 375.681 1318.88 375.668C1319.1 375.588 1319.21 375.347 1319.13 375.13C1319.05 374.914 1318.81 374.803 1318.59 374.884ZM1321.42 366.959C1321.38 366.985 1321.28 367.042 1321.1 367.12C1320.8 367.256 1320.42 367.393 1319.96 367.522C1317.63 368.174 1314.29 368.36 1309.78 367.784C1309.55 367.755 1309.33 367.916 1309.3 368.146C1309.27 368.375 1309.44 368.585 1309.67 368.614C1314.29 369.204 1317.75 369.012 1320.19 368.327C1321.06 368.084 1321.62 367.835 1321.89 367.656C1322.08 367.529 1322.14 367.269 1322.01 367.076C1321.88 366.884 1321.62 366.831 1321.42 366.959ZM1322.78 357.885C1322.75 357.903 1322.67 357.94 1322.55 357.993C1322.36 358.083 1322.12 358.183 1321.84 358.292C1321.05 358.604 1320.1 358.917 1319.01 359.21C1316.65 359.844 1313.95 360.291 1310.92 360.469C1310.69 360.483 1310.51 360.681 1310.52 360.912C1310.54 361.143 1310.74 361.319 1310.97 361.305C1314.06 361.123 1316.82 360.666 1319.23 360.018C1320.36 359.717 1321.33 359.393 1322.16 359.069C1322.45 358.955 1322.7 358.849 1322.91 358.753C1323.04 358.695 1323.13 358.652 1323.17 358.628C1323.38 358.521 1323.46 358.269 1323.36 358.063C1323.25 357.858 1322.99 357.779 1322.78 357.885ZM1319.71 349.506C1319.7 349.62 1319.6 349.882 1319.3 350.255C1318.77 350.931 1317.82 351.622 1316.35 352.279C1313.57 353.525 1309.33 354.466 1303.35 354.967C1303.12 354.987 1302.94 355.19 1302.96 355.42C1302.98 355.65 1303.19 355.821 1303.42 355.801C1309.49 355.293 1313.83 354.331 1316.7 353.041C1318.29 352.332 1319.34 351.56 1319.97 350.772C1320.37 350.267 1320.54 349.846 1320.56 349.57C1320.58 349.34 1320.4 349.138 1320.17 349.121C1319.93 349.103 1319.73 349.275 1319.71 349.506Z" fill="#6D4038"/>
<path fill-rule="evenodd" clip-rule="evenodd" d="M852.932 550.701H871.247L833.566 609.863C832.336 611.793 830.187 612.965 827.877 612.965C825.01 612.965 823.141 609.993 824.414 607.458L852.932 550.701Z" fill="#FF9624"/>
<path fill-rule="evenodd" clip-rule="evenodd" d="M992.773 550.701H974.457L1012.14 609.863C1013.37 611.793 1015.52 612.965 1017.83 612.965C1020.7 612.965 1022.56 609.993 1021.29 607.458L992.773 550.701Z" fill="#FF9624"/>
<path fill-rule="evenodd" clip-rule="evenodd" d="M1051.48 535.261C1051.48 554.132 994.121 569.43 923.366 569.43C852.611 569.43 795.252 554.132 795.252 535.261C795.252 516.39 852.611 501.091 923.366 501.091C994.121 501.091 1051.48 516.39 1051.48 535.261Z" fill="#FF9624"/>
<path fill-rule="evenodd" clip-rule="evenodd" d="M883.105 523.877L924.857 522.067L926.704 523.365V526.535L882.131 554.75L838.532 553.282L838.385 549.531L883.105 523.877Z" fill="#FF9624"/>
<path fill-rule="evenodd" clip-rule="evenodd" d="M882.109 551.863L924.857 524.472V515.265L882.109 542.147L838.488 540.754V550.827L882.109 551.863Z" fill="#F4F0F0"/>
<path fill-rule="evenodd" clip-rule="evenodd" d="M883.097 512.734L926.703 514.13L924.857 517.291V515.265L882.123 542.095L838.641 541.354L837.871 540.07L883.097 512.734Z" fill="#7D27C4"/>
<path fill-rule="evenodd" clip-rule="evenodd" d="M965.729 511.215H989.862L988.937 526.356C988.658 530.932 984.816 534.501 980.172 534.501H975.42C970.775 534.501 966.933 530.932 966.654 526.356L965.729 511.215Z" fill="#F24236"/>
<path fill-rule="evenodd" clip-rule="evenodd" d="M987.294 529.439L987.657 526.469C991.855 526.14 996.859 524.47 996.859 518.39C996.859 516.407 996.082 515.942 995.826 515.789C994.187 514.808 990.502 515.942 988.565 516.889L987.321 514.497C987.973 514.176 993.793 511.426 997.27 513.505C998.342 514.145 999.618 515.511 999.618 518.39C999.618 524.636 994.754 528.853 987.294 529.439Z" fill="#F24236"/>
<path fill-rule="evenodd" clip-rule="evenodd" d="M989.862 511.469C989.862 513.566 984.46 515.266 977.796 515.266C971.131 515.266 965.729 513.566 965.729 511.469C965.729 509.372 971.131 507.673 977.796 507.673C984.46 507.673 989.862 509.372 989.862 511.469Z" fill="#A62D25"/>
<path fill-rule="evenodd" clip-rule="evenodd" d="M997.564 496.029C997.848 496.029 998.078 496.256 998.078 496.536C998.078 498.79 997.231 500.642 995.607 502.297C994.404 503.525 993.219 504.346 990.39 506.077C987.635 507.763 986.493 508.555 985.369 509.701C983.922 511.177 983.187 512.783 983.187 514.759C983.187 514.908 982.849 514.908 982.576 514.952C982.303 514.996 982.16 515.039 982.16 514.759C982.16 512.505 983.007 510.653 984.631 508.997C985.834 507.77 987.019 506.948 989.848 505.217C992.603 503.531 993.745 502.739 994.869 501.594C996.316 500.117 997.051 498.512 997.051 496.536C997.051 496.256 997.281 496.029 997.564 496.029ZM980.634 489.03C984.074 491.339 985.754 493.59 985.754 496.824C985.754 499.047 984.906 500.872 983.28 502.504C982.077 503.712 980.892 504.521 978.063 506.224C977.468 506.582 977.205 506.741 976.881 506.941C972.703 509.515 970.865 511.474 970.865 514.568C970.865 514.604 970.628 514.533 970.333 514.466C970.038 514.4 969.844 514.4 969.844 514.358C969.844 510.93 971.968 508.774 976.336 506.083C976.665 505.88 976.93 505.72 977.526 505.361C980.282 503.701 981.424 502.922 982.548 501.794C983.994 500.343 984.727 498.765 984.727 496.824C984.727 493.994 983.244 492.007 980.056 489.867C979.821 489.71 979.761 489.395 979.92 489.164C980.08 488.933 980.399 488.873 980.634 489.03Z" fill="#F4F0F0"/>
</g>
</g>
<defs>
<filter id="filter0_d" x="752" y="224" width="868.902" height="397.089" filterUnits="userSpaceOnUse" color-interpolation-filters="sRGB">
<feFlood flood-opacity="0" result="BackgroundImageFix"/>
<feColorMatrix in="SourceAlpha" type="matrix" values="0 0 0 0 0 0 0 0 0 0 0 0 0 0 0 0 0 0 127 0"/>
<feOffset dy="4"/>
<feGaussianBlur stdDeviation="2"/>
<feColorMatrix type="matrix" values="0 0 0 0 0 0 0 0 0 0 0 0 0 0 0 0 0 0 0.25 0"/>
<feBlend mode="normal" in2="BackgroundImageFix" result="effect1_dropShadow"/>
<feBlend mode="normal" in="SourceGraphic" in2="effect1_dropShadow" result="shape"/>
</filter>
<clipPath id="clip0">
<rect width="1461" height="651" fill="white"/>
</clipPath>
</defs>
</svg>
