<svg width="1461" height="495" viewBox="0 0 1461 495" fill="none" xmlns="http://www.w3.org/2000/svg">
<g clip-path="url(#clip0)">
<rect width="1461" height="495" fill="white"/>
<path fill-rule="evenodd" clip-rule="evenodd" d="M1422.31 54.0872C1485.68 52.87 1552.17 64.0728 1592.96 107.94C1634.83 152.963 1640.12 215.609 1625.9 273.011C1611.6 330.738 1576.6 384.347 1517.97 410.599C1458.61 437.177 1387.41 434.41 1329.17 405.876C1274.04 378.862 1244.76 325.789 1231.7 270.332C1218.93 216.079 1222.28 157.703 1260.52 114.326C1298.76 70.9359 1360.96 55.2655 1422.31 54.0872Z" fill="#FFF1E0"/>
<path fill-rule="evenodd" clip-rule="evenodd" d="M-136.298 359.121C-166.693 311.941 -174.85 252.272 -151.064 195.446C-126.821 137.532 -75.9674 89.1583 -14.0117 66.986C46.4447 45.3501 107.468 57.982 158.762 84.5677C212.049 112.187 259.701 152.386 265.142 211.671C270.815 273.482 238.906 338.78 186.3 384.62C136.005 428.445 68.3507 443.101 5.26977 438.115C-54.8938 433.36 -106.444 405.462 -136.298 359.121Z" fill="#F6ECFF"/>
</g>
<defs>
<clipPath id="clip0">
<rect width="1461" height="495" fill="white"/>
</clipPath>
</defs>
</svg>
