<svg xmlns="http://www.w3.org/2000/svg" viewBox="0 0 512 512"><defs><style>.cls-1{fill:#ff3924;}.cls-2{fill:#fff;}.cls-3{fill:#2c2c2c;}</style></defs><title>Asset 1</title><g id="Layer_2" data-name="Layer 2"><g id="Layer_1-2" data-name="Layer 1"><path class="cls-1" d="M501,255.5c0,135.84-110.12,246-246,246s-246-110.12-246-246,110.13-246,246-246S501,119.66,501,255.5Z"/><path class="cls-2" d="M326.88,186.17a235.87,235.87,0,0,0-41.18-10,227.44,227.44,0,0,0-30.22-2.46,213,213,0,0,0-47.09,4.56,191.74,191.74,0,0,0-99.95,55.58c-.62.62-1.24,1.24-1.85,1.9a51.2,51.2,0,0,0,2.68,72.37,49.62,49.62,0,0,0,7,5.45c6.33,1.94,15.77.18,21-3.91l45.95-36a21.82,21.82,0,0,0,6-27.41l-.18-.33a7,7,0,0,1,3.25-9.79A148.72,148.72,0,0,1,303.29,232a7,7,0,0,1,4,9.53l-.16.34a21.8,21.8,0,0,0,8,26.88l52.74,35.41a14.59,14.59,0,0,0,17-.53,48.75,48.75,0,0,0,6.57-5.92,51.22,51.22,0,0,0-.77-70.52c-.63-.62-1.25-1.23-1.91-1.85s-1.32-1.19-2-1.76a143.43,143.43,0,0,0-13.5-10.74S346.16,192.74,326.88,186.17Z"/><path class="cls-3" d="M437,75a256,256,0,0,0-328.8-28,10,10,0,0,0,11.6,16.38,235.93,235.93,0,0,1,303,359.5A235.94,235.94,0,0,1,59.93,124.75a10,10,0,1,0-16.67-11.19A256,256,0,0,0,437,437a256,256,0,0,0,0-362Z"/><path class="cls-3" d="M319.85,437.92A237.59,237.59,0,0,1,192,440.1a10,10,0,1,0-5.1,19.42A255.89,255.89,0,0,0,252,467.88l4.44,0a256.5,256.5,0,0,0,69.18-10.69,10,10,0,0,0-5.75-19.24Z"/><path class="cls-3" d="M82.9,271.63a61.3,61.3,0,0,0,27.91,49.14,10.24,10.24,0,0,0,2.51,1.17,29.88,29.88,0,0,0,8.69,1.21c7.67,0,15.88-2.48,21.43-6.83l45.94-36a31.76,31.76,0,0,0,9.85-37.52,138.81,138.81,0,0,1,97.66-3.62,31.76,31.76,0,0,0,12.58,36.69l52.74,35.4a24.58,24.58,0,0,0,28.61-.84,57.39,57.39,0,0,0,7.89-7.1,61.16,61.16,0,0,0-.93-84.36l-.12-.13c-.7-.69-1.4-1.38-2.14-2.07s-1.4-1.26-2.16-1.92a140.88,140.88,0,0,0-13.17-10.54l-1-.74c-1.15-.86-28.54-21.11-49.07-28.1A245.81,245.81,0,0,0,287.28,165l-3.41-.58a190.18,190.18,0,0,0-77.73,2.81,202.79,202.79,0,0,0-104.9,58.36c-.67.68-1.34,1.36-2,2.08A60.86,60.86,0,0,0,82.9,271.63ZM114,241.34c.53-.57,1.07-1.12,1.61-1.66l.15-.14a182.58,182.58,0,0,1,94.77-52.68l.31-.08a170.31,170.31,0,0,1,69.71-2.55l3.51.6.21,0a226.08,226.08,0,0,1,39.42,9.58c17.55,6,43.32,25,43.61,25.23l1.05.77A123.1,123.1,0,0,1,380,229.77l.21.18c.56.48,1.12,1,1.69,1.5s1.07,1,1.59,1.54a41.1,41.1,0,0,1,.55,56.63,37.17,37.17,0,0,1-5.18,4.67l-.14.11a4.52,4.52,0,0,1-5.27.16l-52.75-35.41a11.84,11.84,0,0,1-4.38-14.49l.1-.21a17,17,0,0,0-9.64-23.14,158.77,158.77,0,0,0-118.65,4.4,17,17,0,0,0-7.91,23.76l.15.28A11.83,11.83,0,0,1,177,264.48l-46,36c-2.35,1.86-7.35,2.94-10.69,2.46a41.17,41.17,0,0,1-6.4-61.64Z"/><path class="cls-3" d="M355.16,417.94l-.61.26a10,10,0,1,0,7.87,18.47l.6-.25a10,10,0,0,0-7.86-18.48Z"/><path class="cls-3" d="M79.71,95.13a10,10,0,0,0,3.91-.79l.6-.26a10,10,0,1,0-7.83-18.49l-.6.26a10,10,0,0,0,3.92,19.28Z"/></g></g></svg>