<?xml version="1.0" encoding="utf-8"?>
<!-- Generator: Adobe Illustrator 23.0.1, SVG Export Plug-In . SVG Version: 6.00 Build 0)  -->
<svg version="1.1" id="Layer_1" xmlns:svgjs="http://svgjs.com/svgjs"
	 xmlns="http://www.w3.org/2000/svg" xmlns:xlink="http://www.w3.org/1999/xlink" x="0px" y="0px" viewBox="0 0 512 512"
	 style="enable-background:new 0 0 512 512;" xml:space="preserve">
<style type="text/css">
	.st0{fill:#7E27C4;}
	.st1{fill:#CBA9E7;}
	.st2{fill:#E5D4F3;}
	.st3{fill:#FFE2BD;}
</style>
<g>
	<g>
		<g>
			<path class="st0" d="M70.3,510.9c-5.6-2.3-9.3-7.8-9.3-13.9v-45H45c-24.8,0-45-20.2-45-45V286c0-24.8,20.2-45,45-45h301
				c24.8,0,45,20.2,45,45v121c0,24.8-20.2,45-45,45H142.2l-55.6,55.6C82.2,512,75.7,513.1,70.3,510.9L70.3,510.9z"/>
		</g>
		<path class="st1" d="M346,241H196v211h150c24.8,0,45-20.2,45-45V286C391,261.2,370.8,241,346,241z"/>
		<g>
			<path class="st2" d="M425.4,266.6L369.8,211H166c-24.8,0-45-20.2-45-45V45c0-24.8,20.2-45,45-45h301c24.8,0,45,20.2,45,45v121
				c0,24.8-20.2,45-45,45h-16v45c0,6.1-3.7,11.5-9.3,13.9C436.3,272.1,429.8,271,425.4,266.6L425.4,266.6z"/>
		</g>
		<g id="Chat_2_">
			<g>
				<circle class="st2" cx="136" cy="346" r="15"/>
			</g>
			<g>
				<circle class="st3" cx="196" cy="346" r="15"/>
			</g>
			<g>
				<circle class="st2" cx="256" cy="346" r="15"/>
			</g>
		</g>
		<g id="Chat_3_">
			<g>
				<circle class="st3" cx="136" cy="346" r="15"/>
			</g>
			<g>
				<circle class="st3" cx="256" cy="346" r="15"/>
			</g>
		</g>
	</g>
	<g>
		<path class="st3" d="M467,0H316v211h53.8l55.6,55.6c4.4,4.4,10.9,5.5,16.3,3.3c5.6-2.3,9.3-7.8,9.3-13.9v-45h16
			c24.8,0,45-20.2,45-45V45C512,20.2,491.8,0,467,0L467,0z"/>
	</g>
	<g>
		<path class="st0" d="M406,90H226c-8.3,0-15-6.7-15-15s6.7-15,15-15h180c8.3,0,15,6.7,15,15S414.3,90,406,90z"/>
	</g>
	<g>
		<path class="st0" d="M376,151H256c-8.3,0-15-6.7-15-15s6.7-15,15-15h120c8.3,0,15,6.7,15,15S384.3,151,376,151z"/>
	</g>
	<path class="st1" d="M376,121h-60v30h60c8.3,0,15-6.7,15-15S384.3,121,376,121z"/>
	<path class="st1" d="M406,60h-90v30h90c8.3,0,15-6.7,15-15S414.3,60,406,60z"/>
	<path class="st3" d="M211,346c0-8.3-6.7-15-15-15v30C204.3,361,211,354.3,211,346z"/>
</g>
</svg>
