<svg xmlns="http://www.w3.org/2000/svg" viewBox="0 0 107.03 17.8"><defs><style>.cls-1{fill:#fff;}</style></defs><title>Asset 17</title><g id="Layer_2" data-name="Layer 2"><g id="Layer_1-2" data-name="Layer 1"><path class="cls-1" d="M0,.25H2.13a6,6,0,0,1,3.44.92A2.72,2.72,0,0,1,6.9,3.47a3.3,3.3,0,0,1-2,2.84Q8,7.33,8,9.83a3.27,3.27,0,0,1-1.57,2.81,7.3,7.3,0,0,1-4.2,1.07H0ZM1.82,1.88v4a4.1,4.1,0,0,0,2.33-.58A1.76,1.76,0,0,0,5,3.74a1.6,1.6,0,0,0-.72-1.37,3.37,3.37,0,0,0-2-.51Zm0,5.58v4.6H2a5.06,5.06,0,0,0,3.25-.76,2.08,2.08,0,0,0,.86-1.55,1.9,1.9,0,0,0-1-1.67,4.94,4.94,0,0,0-2.66-.62Z"/><path class="cls-1" d="M10.06,5h1.83V9.91c0,1.51.67,2.27,2,2.27a1.76,1.76,0,0,0,1.41-.61,2.5,2.5,0,0,0,.51-1.66V5h1.82v5.2a3.61,3.61,0,0,1-1.07,2.7,3.72,3.72,0,0,1-2.72,1,3.7,3.7,0,0,1-2.74-1,3.78,3.78,0,0,1-1-2.76Z"/><path class="cls-1" d="M27.16,0H29V13.71h-1.8V11.89A3.89,3.89,0,0,1,23.77,14a3.8,3.8,0,0,1-2.92-1.36,4.75,4.75,0,0,1-1.21-3.27A4.58,4.58,0,0,1,20.88,6.1a3.85,3.85,0,0,1,2.95-1.35,3.47,3.47,0,0,1,1.91.57,4.31,4.31,0,0,1,1.42,1.49Zm.21,9.34a2.82,2.82,0,0,0-.86-2,2.79,2.79,0,0,0-2-.86,2.85,2.85,0,0,0-2.08.84,2.86,2.86,0,0,0,0,4.09,2.77,2.77,0,0,0,2,.87,2.85,2.85,0,0,0,2.08-.84A2.8,2.8,0,0,0,27.37,9.34Z"/><path class="cls-1" d="M39.1,0h1.81V13.71H39.12V11.89A3.9,3.9,0,0,1,35.71,14a3.78,3.78,0,0,1-2.92-1.36,4.75,4.75,0,0,1-1.21-3.27A4.61,4.61,0,0,1,32.81,6.1a3.88,3.88,0,0,1,2.95-1.35,3.48,3.48,0,0,1,1.92.57A4.4,4.4,0,0,1,39.1,6.81Zm.21,9.34a2.82,2.82,0,0,0-.86-2,2.79,2.79,0,0,0-2-.86,2.85,2.85,0,0,0-2.08.84,2.78,2.78,0,0,0-.85,2.06,2.82,2.82,0,0,0,.86,2,2.79,2.79,0,0,0,2,.87,2.87,2.87,0,0,0,2.08-.84A2.8,2.8,0,0,0,39.31,9.34Z"/><path class="cls-1" d="M42.52,5H44.6l3.17,4.73L50,5h1.9L46,17.8H44l2.88-6.23Z"/><path class="cls-1" d="M54.34.25h1.82V11.89h4.38v1.82h-6.2Z"/><path class="cls-1" d="M61.88,2.13a1.29,1.29,0,0,1,.43-1,1.39,1.39,0,0,1,2,0,1.34,1.34,0,0,1,.41,1,1.41,1.41,0,0,1-2.4,1A1.33,1.33,0,0,1,61.88,2.13ZM62.4,5h1.82v8.71H62.4Z"/><path class="cls-1" d="M66.63,13.71V5h1.79V6.44a7.43,7.43,0,0,1,1.44-1.28,2.65,2.65,0,0,1,1.43-.41,2.85,2.85,0,0,1,2,.79,2.46,2.46,0,0,1,.84,1.88v6.29H72.32V8a1.57,1.57,0,0,0-1.63-1.63,2,2,0,0,0-1.58.77A2.78,2.78,0,0,0,68.44,9v4.74Z"/><path class="cls-1" d="M83.7,5h1.79v8.36a4.32,4.32,0,0,1-1.27,3.15,4.18,4.18,0,0,1-3.08,1.29,4.56,4.56,0,0,1-2.52-.74,4.28,4.28,0,0,1-1.69-2.27h1.9A2.65,2.65,0,0,0,81.2,16.2,2.38,2.38,0,0,0,83,15.46a2.49,2.49,0,0,0,.73-1.79V12A4,4,0,0,1,80.34,14a3.77,3.77,0,0,1-2.91-1.37,4.71,4.71,0,0,1-1.24-3.26A4.61,4.61,0,0,1,77.4,6.1a3.72,3.72,0,0,1,2.87-1.35A3.88,3.88,0,0,1,83.7,6.83ZM84,9.34a2.72,2.72,0,0,0-.85-2A2.92,2.92,0,0,0,81,6.46a2.83,2.83,0,0,0-2,.86,2.7,2.7,0,0,0-.87,2A2.9,2.9,0,0,0,79,11.39a2.92,2.92,0,0,0,5-2.05Z"/><path class="cls-1" d="M88.06,5H89.9V9.91c0,1.51.66,2.27,2,2.27a1.74,1.74,0,0,0,1.41-.61,2.5,2.5,0,0,0,.52-1.66V5h1.81v5.2a3.64,3.64,0,0,1-1.06,2.7,3.72,3.72,0,0,1-2.73,1,3.66,3.66,0,0,1-2.73-1,3.75,3.75,0,0,1-1-2.76Z"/><path class="cls-1" d="M105.19,5H107v8.71h-1.84V12a3.91,3.91,0,0,1-3.32,2,3.85,3.85,0,0,1-3-1.35A4.73,4.73,0,0,1,97.7,9.32a4.63,4.63,0,0,1,1.23-3.2,3.81,3.81,0,0,1,2.89-1.37,3.7,3.7,0,0,1,2,.56,4,4,0,0,1,1.42,1.46Zm.26,4.38a2.76,2.76,0,0,0-.86-2,2.89,2.89,0,0,0-4.08,0,2.69,2.69,0,0,0-.87,2,2.91,2.91,0,0,0,.84,2.1,2.86,2.86,0,0,0,4.11,0A2.79,2.79,0,0,0,105.45,9.38Z"/></g></g></svg>