<svg width="1669" height="393" viewBox="0 0 1669 393" fill="none" xmlns="http://www.w3.org/2000/svg">
<rect x="131" y="39" width="1440" height="354" fill="#5D1D91"/>
<path fill-rule="evenodd" clip-rule="evenodd" d="M133.036 95.0119C171.389 94.5533 208.96 107.323 233.348 133.395C258.203 159.966 267.914 195.652 258.411 229.046C249.139 261.631 219.776 285.067 185.829 300.388C150.562 316.303 110.03 326.284 73.6623 312.422C35.7452 297.97 9.3734 265.994 1.76614 230.23C-5.50684 196.038 10.4146 162.194 36.0832 135.754C60.5647 110.536 95.3659 95.4624 133.036 95.0119Z" fill="#F6ECFF" fill-opacity="0.21"/>
<path fill-rule="evenodd" clip-rule="evenodd" d="M1572.03 48.0085C1600.87 47.6829 1629.12 56.7471 1647.46 75.2535C1666.14 94.1144 1673.45 119.445 1666.3 143.148C1659.33 166.278 1637.25 182.914 1611.73 193.789C1585.21 205.086 1554.73 212.17 1527.39 202.331C1498.88 192.072 1479.05 169.375 1473.33 143.99C1467.86 119.719 1479.83 95.6961 1499.13 76.9279C1517.54 59.0277 1543.71 48.3282 1572.03 48.0085Z" fill="#F6ECFF" fill-opacity="0.21"/>
<path fill-rule="evenodd" clip-rule="evenodd" d="M1497.03 150.008C1525.87 149.683 1554.12 158.747 1572.46 177.253C1591.14 196.114 1598.45 221.445 1591.3 245.148C1584.33 268.278 1562.25 284.914 1536.73 295.789C1510.21 307.086 1479.73 314.17 1452.39 304.331C1423.88 294.072 1404.05 271.375 1398.33 245.99C1392.86 221.719 1404.83 197.696 1424.13 178.928C1442.54 161.028 1468.71 150.328 1497.03 150.008Z" fill="#F6ECFF" fill-opacity="0.12"/>
<path fill-rule="evenodd" clip-rule="evenodd" d="M188.031 0.00846481C216.869 -0.31708 245.119 8.74709 263.456 27.2535C282.145 46.1144 289.446 71.445 282.302 95.1484C275.33 118.278 253.252 134.914 227.726 145.789C201.209 157.086 170.732 164.17 143.387 154.331C114.877 144.072 95.0479 121.375 89.328 95.9895C83.8594 71.7193 95.8308 47.6961 115.131 28.9279C133.539 11.0277 159.706 0.328217 188.031 0.00846481Z" fill="#F6ECFF" fill-opacity="0.11"/>
</svg>
