<?xml version="1.0" encoding="utf-8"?>
<!-- Generator: Adobe Illustrator 23.0.1, SVG Export Plug-In . SVG Version: 6.00 Build 0)  -->
<svg version="1.1" id="Layer_1" xmlns:svg="http://www.w3.org/2000/svg"
	 xmlns="http://www.w3.org/2000/svg" xmlns:xlink="http://www.w3.org/1999/xlink" x="0px" y="0px" viewBox="0 0 2481 2073"
	 style="enable-background:new 0 0 2481 2073;" xml:space="preserve">
<style type="text/css">
	.st0{fill-rule:evenodd;clip-rule:evenodd;fill:#7E27C4;}
	.st1{fill-rule:evenodd;clip-rule:evenodd;fill:#FFFFFF;}
</style>
<title>orange pin</title>
<g>
	<title>Layer 1</title>
	<path id="svg_2" class="st0" d="M730.94,1840.63c-38.77-190.3-107.12-348.67-189.9-495.44
		c-61.41-108.87-132.54-209.36-198.36-314.94c-21.97-35.24-40.93-72.48-62.05-109.05c-42.22-73.14-76.44-157.93-74.27-267.93
		c2.13-107.47,33.21-193.68,78.03-264.17c73.72-115.93,197.2-210.99,362.88-235.97c135.47-20.42,262.47,14.08,352.54,66.75
		c73.6,43.04,130.6,100.53,173.92,168.28c45.22,70.72,76.36,154.26,78.97,263.23c1.34,55.83-7.8,107.53-20.68,150.42
		c-13.03,43.41-33.99,79.7-52.64,118.45c-36.41,75.66-82.05,144.98-127.86,214.34C915.08,1341.21,787.02,1551.91,730.94,1840.63z"/>
	<circle id="svg_4" class="st0" cx="729.55" cy="651.05" r="183.33"/>
</g>
<circle class="st1" cx="729.54" cy="679.62" r="241.34"/>
</svg>
